<svg xmlns="http://www.w3.org/2000/svg" xmlns:xlink="http://www.w3.org/1999/xlink" width="224" height="62"
    viewBox="0 0 224 62">
    <defs>
        <filter id="vbumf99cda">
            <feColorMatrix in="SourceGraphic"
                values="0 0 0 0 1.000000 0 0 0 0 1.000000 0 0 0 0 1.000000 0 0 0 1.000000 0" />
        </filter>
        <filter id="i6qqm0ng6b">
            <feColorMatrix in="SourceGraphic"
                values="0 0 0 0 1.000000 0 0 0 0 1.000000 0 0 0 0 1.000000 0 0 0 1.000000 0" />
        </filter>
        <path id="1g0ub78izc" d="M0.401 0.344L16.603 0.344 16.603 27.687 0.401 27.687z" />
    </defs>
    <g fill="none" fill-rule="evenodd">
        <g>
            <g filter="url(#vbumf99cda)" transform="translate(-444 -1686) translate(60 1638)">
                <g>
                    <path fill="#9BC8AB"
                        d="M47.654 0.574L12 8.496 12.052 14.087 18.874 13.719 30.8 15.094 36.512 18.79 38.119 24.067 37.232 27.754 36.001 30.071 34 32.781 29.66 37.267 29.239 39.508 30.417 42.323 33.195 43.809 37.927 47.365 44.396 50.574 56 45.76z"
                        transform="translate(384 48.426)" />
                    <path fill="#F0814F"
                        d="M1.577 17.989L0 57.594 25.792 60.574 19.398 52.448 16.208 44.659 16.436 41.192 18.763 36.993 24.473 33.613 30.018 28.656 31.659 26.166 32 22.439 30.67 19.643 27.118 17.534 14.482 16.574z"
                        transform="translate(384 48.426)" />
                    <g filter="url(#i6qqm0ng6b)" transform="translate(384 48.426)">
                        <g>
                            <path fill="#404143"
                                d="M16.362 9.03c0-6.276-5.419-8.503-10.059-8.503C4.197.527.758.522.758.522H.375v26.981H5.86v-8.648l5.57 8.648h6.571l-6.72-10.566c1.322-.604 5.08-2.774 5.08-7.907m-5.568.206c0 .98-.31 1.752-.92 2.293-1.19 1.053-3.22 1.029-4.013.973V5.968c.792-.055 2.823-.078 4.012.974.611.541.921 1.313.921 2.294M141.861 9.03c0-6.276-5.419-8.503-10.059-8.503-2.106 0-5.545-.005-5.545-.005h-.383v26.981h5.486v-8.648l5.57 8.648 6.325-.356-6.474-10.21c1.322-.604 5.08-2.774 5.08-7.907m-5.568.206c0 .98-.31 1.752-.92 2.293-1.19 1.053-3.22 1.029-4.013.973V5.968c.792-.055 2.823-.078 4.013.974.61.541.92 1.313.92 2.294M28.016.516L19.141 27.503 25.058 27.503 30.173 11.887 35.289 27.503 41.106 27.199 32.331.516zM54.54 13.512L48.342.78 42.869.522 42.869 27.503 48.355 27.508 48.355 13.813 52.662 22.381 56.418 22.381 60.725 13.813 60.725 27.508 66.21 27.502 66.21.522 60.992.522zM83.872 11.746c.557-1.068.839-2.324.839-3.742C84.71.606 77.74.52 77.67.52h-7.999v26.982h.382l8.4.005c.898 0 8.761-.246 8.761-8.755 0-3.883-1.748-5.94-3.343-7.007zm-6.785-1.462l-1.93.002v-4.28h1.985c.606 0 2.016.21 2.016 2.14 0 1.703-1.448 2.063-2.07 2.138zm-1.93 11.727v-6.519l2.828.004h.027c.017-.002 1.74-.106 2.81.91.577.547.869 1.336.869 2.345 0 .961-.278 1.726-.827 2.274-.997.996-2.587.985-2.618.986h-3.089zM95.336.265L89.654.539 89.654 27.509 104.45 27.509 104.45 22.011 95.336 22.011zM113.151 15.75L120.045 15.75 120.045 10.253 113.151 10.253 113.151 6.007 122.11 6.007 122.11.509 107.47.524 107.47 27.508 122.701 27.508 122.265 22.011 113.151 22.011z"
                                transform="translate(62 16.574)" />
                            <g transform="translate(62 16.574) translate(144.37)">
                                <mask id="874b4fwxvd" fill="#fff">
                                    <use xlink:href="#1g0ub78izc" />
                                </mask>
                                <path fill="#404143"
                                    d="M10.386 11.86c-2.942-1.53-4.371-2.77-4.371-3.792 0-.948.977-2.261 2.81-2.261 1.786 0 2.555 1.567 2.589 1.637l.144.309 4.968-1.663-.116-.367c-.782-2.48-3.216-5.379-7.5-5.379-2 0-4.03.693-5.569 1.9C2.05 3.256.511 5.103.511 8.153c0 4.805 4.811 7.304 7.124 8.505.237.123.449.234.627.332 1.767.968 2.822 2.115 2.822 3.069 0 .835-1.17 2.098-2.932 2.098-1.666 0-2.512-1.715-2.52-1.73l-.145-.308L.4 21.826l.132.374c.322.916 2.212 5.487 7.85 5.487 5.146 0 8.22-3.925 8.22-7.72 0-4.37-3.548-6.72-6.217-8.108"
                                    mask="url(#874b4fwxvd)" />
                            </g>
                        </g>
                    </g>
                </g>
            </g>
        </g>
    </g>
</svg>