<svg width="180" height="49" xmlns="http://www.w3.org/2000/svg" xmlns:xlink="http://www.w3.org/1999/xlink">
    <defs>
        <path id="prefix__a" d="M.323.277h13.038v21.971H.323z" />
    </defs>
    <g fill="none" fill-rule="evenodd">
        <path fill="#9BC8AB" fill-rule="nonzero"
            d="M38.222 0L9.265 6.395l.042 4.515 5.541-.298 9.685 1.111 4.64 2.984 1.305 4.26-.721 2.976-.999 1.871-1.625 2.188-3.526 3.622-.341 1.809.957 2.273 2.256 1.2 3.843 2.871 5.254 2.591L45 36.481z" />
        <path fill="#F0814F" fill-rule="nonzero"
            d="M1.272 13.723L0 45.888l20.802 2.421-5.157-6.6-2.572-6.326.183-2.816 1.877-3.41 4.605-2.745 4.472-4.026 1.324-2.023.275-3.026-1.073-2.271-2.865-1.713-10.191-.779z" />
        <path
            d="M62.799 19.83c0-5.043-4.36-6.833-8.095-6.833-1.694 0-4.462-.003-4.462-.003h-.308v21.682h4.414v-6.95l4.483 6.95h5.288l-5.407-8.492c1.064-.486 4.088-2.23 4.088-6.354h-.001zm-4.479.165c0 .788-.25 1.408-.741 1.843-.957.846-2.592.827-3.23.783V17.37c.638-.044 2.273-.063 3.23.783.491.434.74 1.054.74 1.842h.001zm105.473-.165c0-5.043-4.36-6.833-8.095-6.833-1.694 0-4.462-.004-4.462-.004h-.308v21.682h4.414v-6.95l4.482 6.95 5.091-.286-5.21-8.205c1.064-.486 4.088-2.23 4.088-6.354zm-4.48.165c0 .788-.25 1.408-.741 1.843-.957.846-2.592.827-3.23.783V17.37c.638-.044 2.273-.063 3.23.783.491.434.74 1.054.74 1.842h.001zm-87.135-7.006l-7.143 21.686h4.762l4.117-12.549 4.116 12.549 4.682-.245-7.062-21.441h-3.472zm21.344 10.442l-4.987-10.23-4.405-.207v21.68l4.415.005V23.674l3.466 6.884h3.022l3.467-6.884v11.005l4.414-.005v-21.68h-4.2l-5.192 10.437zm23.605-1.417c.448-.86.675-1.87.675-3.009 0-5.944-5.608-6.013-5.665-6.013l-6.437.002v21.68h.308l6.76.005c.721 0 7.05-.198 7.05-7.035 0-3.121-1.408-4.773-2.691-5.63zm-5.46-1.176l-1.553.001v-3.438h1.597c.488 0 1.623.167 1.623 1.72 0 1.368-1.166 1.657-1.667 1.717zm-1.553 9.423v-5.237l2.275.003h.022c.014-.001 1.401-.085 2.262.73.464.44.699 1.075.699 1.886 0 .772-.224 1.387-.666 1.827-.802.8-2.081.791-2.107.792h-2.485v-.001zm16.239-17.474l-4.573.22v21.672h11.907v-4.418h-7.334V12.787zm14.336 12.443h5.547v-4.417h-5.547v-3.412h7.21v-4.418l-11.782.012v21.684h12.257l-.35-4.417h-7.335V25.23z"
            fill="#404143" fill-rule="nonzero" />
        <g transform="translate(165.812 12.574)">
            <mask id="prefix__b" fill="#fff">
                <use xlink:href="#prefix__a" />
            </mask>
            <path
                d="M8.358 9.53C5.991 8.3 4.84 7.305 4.84 6.483c0-.762.786-1.817 2.262-1.817 1.437 0 2.056 1.26 2.083 1.316l.116.248L13.3 4.894l-.093-.295C12.576 2.605 10.618.277 7.17.277c-1.609 0-3.242.556-4.481 1.526C1.649 2.616.41 4.1.41 6.55c0 3.862 3.872 5.87 5.733 6.835.19.099.361.188.505.266 1.422.778 2.27 1.7 2.27 2.467 0 .671-.94 1.686-2.359 1.686-1.34 0-2.02-1.378-2.027-1.391l-.118-.247-4.092 1.371.106.301c.259.737 1.78 4.41 6.318 4.41 4.14 0 6.615-3.155 6.615-6.204 0-3.512-2.856-5.4-5.004-6.515"
                fill="#404143" fill-rule="nonzero" mask="url(#prefix__b)" />
        </g>
    </g>
</svg>