<?xml version="1.0" encoding="UTF-8"?>
<svg version="1.1" xmlns="http://www.w3.org/2000/svg">
  <defs></defs>
  <symbol id="i-assistance-dogs" viewBox="0 0 18 17" xmlns="http://www.w3.org/2000/svg">
    <path
      d="M5.5 17a1 1 0 001-1v-3h4v3a1 1 0 001 1H14a1 1 0 001-1V8.5h.25A2.753 2.753 0 0018 5.75v-1.5C18 3.56 17.44 3 16.75 3h-1.536l-.017-.032A1.74 1.74 0 0013.632 2H11.25c-.017 0-.032.004-.048.005L11.206 2l-.853-.852A.5.5 0 009.5 1.5V7H5.75c-.978 0-1.861.385-2.53 1h-.47C2.06 8 1.5 7.44 1.5 6.75a.75.75 0 00-1.5 0 2.75 2.75 0 002.246 2.7A3.713 3.713 0 002 10.75V16a1 1 0 001 1h2.5zm8-9.148L11 7.227V3.75a.25.25 0 01.25-.25h2.382c.095 0 .18.053.224.138l.43.862H16.5v1.25c0 .69-.56 1.25-1.25 1.25H13.5v.852zM4.5 6a.375.375 0 00.375-.375v-1.75h1.75A.375.375 0 007 3.5v-1a.375.375 0 00-.375-.375h-1.75V.375A.375.375 0 004.5 0h-1a.375.375 0 00-.375.375v1.75h-1.75A.375.375 0 001 2.5v1c0 .207.168.375.375.375h1.75v1.75c0 .207.168.375.375.375h1zm8.5-.5a.5.5 0 100-1 .5.5 0 000 1zm-8 10H3.5v-4.75c0-1.24 1.01-2.25 2.25-2.25h4.158l3.592.898V15.5H12v-4H5v4z"
      fill-rule="nonzero"/>
  </symbol>
  <symbol id="i-back-link" viewBox="0 0 16 14" xmlns="http://www.w3.org/2000/svg">
    <path
      d="M15.865 6.365l-.106-1.543-1.644.25-1.618.125-1.629-.012-1.608.26-1.63-.007-1.618.125-1.05.048.255-.242 1.098-1.18 1.128-1.151L8.616 1.86 7.457.964 6.497 0 5.34 1.07l-.969 1.3L3.3 3.57 2.18 4.728 1.1 5.925l-.893.934-.205.192.01.012L0 7.076l.165.163.864.997 1.075 1.17 1.064 1.18 1.043 1.198 1.138 1.11L6.423 14l.98-.932 1.148-.924-1.174-1.159L6.217 9.9l-1.11-1.137-.234-.258 1.356-.046 1.62-.11 1.618-.153 1.622-.082 1.624-.043 1.621-.107L16 7.911z"
      fill-rule="evenodd"/>
  </symbol>
  <symbol id="i-back-round" xmlns="http://www.w3.org/2000/svg" viewBox="0 0 44 44">
    <path
      d="M9.369 4.016A22.187 22.187 0 0124.65.144l10.445 4.011c.276.197.547.4.815.613 1.607 1.267 4.308 4.522 4.308 4.522s2.886 5.075 3.509 7.8c1.01 4.424-1.11 13.193-1.11 13.193l-.017.027c-.284.483-4.255 7.161-7.7 9.572C30.894 42.687 22.054 44 22.054 44c-6.8-.132-13.782-3.46-18.004-9.39a21.924 21.924 0 01-3.358-7.204l-.516-2.68a21.865 21.865 0 019.193-20.71zm10.17 5.767l-2.023 1.91-1.694 2.321-1.877 2.145-1.96 2.068-1.891 2.137-1.561 1.668-.359.342.018.021-.022.024.289.29 1.512 1.781 1.882 2.09 1.861 2.108 1.825 2.139 1.992 1.98 1.879 1.976 1.715-1.664 2.009-1.65-2.053-2.07-2.032-1.94-1.943-2.029-.409-.462 2.374-.082 2.835-.197 2.83-.272 2.84-.147 2.842-.076 2.837-.19 2.915-.093-.237-2.762-.184-2.755-2.878.445-2.831.225-2.85-.022-2.815.465-2.851-.013-2.833.223-1.838.087.447-.433 1.92-2.108 1.975-2.055 2.054-2.102-2.028-1.601-1.682-1.722z"
      fill-rule="evenodd"/>
  </symbol>
  <symbol id="i-back" xmlns="http://www.w3.org/2000/svg" viewBox="0 0 96 83">
    <path
      d="M94.945 37.298l-.626-9.051-9.769 1.461-9.613.74-9.674-.073-9.557 1.526-9.678-.041-9.616.734-6.239.283 1.517-1.42 6.52-6.927 6.703-6.754 6.97-6.906-6.884-5.26-5.708-5.656-6.868 6.275-5.752 7.627-6.373 7.045-6.655 6.796-6.418 7.023-5.299 5.478-1.217 1.125.061.07-.075.078.98.953 5.133 5.852 6.389 6.868 6.319 6.924 6.196 7.027 6.76 6.509 6.379 6.491 5.824-5.467 6.818-5.424-6.97-6.798-6.896-6.375-6.596-6.666-1.389-1.518 8.059-.271 9.623-.647 9.611-.893 9.638-.484 9.648-.251 9.633-.625 9.895-.304z"
      fill-rule="evenodd"/>
  </symbol>
  <symbol id="i-car-parking" viewBox="0 0 14 14" xmlns="http://www.w3.org/2000/svg">
    <path
      d="M12.5 14a1.5 1.5 0 001.5-1.5v-11A1.5 1.5 0 0012.5 0h-11A1.5 1.5 0 000 1.5v11A1.5 1.5 0 001.5 14h11zm-7-3h-1a.501.501 0 01-.5-.5v-7c0-.275.225-.5.5-.5h3c1.653 0 3 1.347 3 3s-1.347 3-3 3H6v1.5c0 .275-.225.5-.5.5zm2-4c.55 0 1-.45 1-1s-.45-1-1-1H6v2h1.5z"
      fill-rule="nonzero"/>
  </symbol>
  <symbol id="i-car-sharing" viewBox="0 0 16 12" xmlns="http://www.w3.org/2000/svg">
    <path
      d="M3 12a1 1 0 001-1v-1h8v1a1 1 0 001 1h1a1 1 0 001-1V9.31c.307-.351.5-.806.5-1.31V6.5c0-.6-.27-1.133-.69-1.5h.627a.375.375 0 00.364-.284l.188-.75a.375.375 0 00-.364-.466h-1.871l-.52-1.3A3.482 3.482 0 009.984 0H6.016C4.576 0 3.3.863 2.766 2.2l-.52 1.3H.376a.375.375 0 00-.364.466l.187.75A.375.375 0 00.563 5h.627C.77 5.367.5 5.9.5 6.5V8c0 .504.193.958.5 1.31V11a1 1 0 001 1h1zm9-7.5H4l.623-1.557A1.5 1.5 0 016.016 2h3.968a1.5 1.5 0 011.393.943L12 4.5zM3 7.994c-.6 0-1-.399-1-.997S2.4 6 3 6s1.5.897 1.5 1.495c0 .598-.9.499-1.5.499zm8.5-.499C11.5 6.897 12.4 6 13 6s1 .399 1 .997-.4.997-1 .997-1.5.1-1.5-.499z"
      fill-rule="nonzero"/>
  </symbol>
  <symbol id="i-chat" xmlns="http://www.w3.org/2000/svg" viewBox="0 0 96 88">
    <path
      d="M7.707 87.152l.23.263.543-12.733.972-12.666-6.187-10.482L.824 39.557l1.61-9.508 4.188-8.671 6.396-7.198 7.462-6.208 8.868-4.038 9.51-1.95L48.484.67l9.613 1.38 9.556 1.79 8.843 4.12 7.466 6.209 6.307 7.262 4.745 8.468.834 9.658-1.304 9.51-4.43 8.516-6.04 7.489-7.7 5.878-8.725 4.312-9.432 2.51-9.733-.16-10.442.19-10.026 3.203-10.065 3.352-10.244 2.795zm14.176-28.804l-.132 3.25-2.715 12.588 7.337-4.293 7.763-3.978 4.123-.682 10.225 1.256 9.852-1.022 9.446-3.028 7.919-5.886 6.072-7.6 2.795-9.396-2.825-9.383-5.636-8.073-8.602-4.843-9.27-3.138-9.751-1.615-9.871 1.052-9.152 3.698-8.606 4.84-6.012 7.885-2.642 9.577 2.423 9.03 5.672 7.325 1.587 2.436z"
      fill-rule="evenodd"/>
  </symbol>
  <symbol id="i-clock" xmlns="http://www.w3.org/2000/svg" viewBox="0 0 512 512">
    <path
      d="M256 8C119 8 8 119 8 256s111 248 248 248 248-111 248-248S393 8 256 8zm0 448c-110.5 0-200-89.5-200-200S145.5 56 256 56s200 89.5 200 200-89.5 200-200 200zm61.8-104.4l-84.9-61.7c-3.1-2.3-4.9-5.9-4.9-9.7V116c0-6.6 5.4-12 12-12h32c6.6 0 12 5.4 12 12v141.7l66.8 48.6c5.4 3.9 6.5 11.4 2.6 16.8L334.6 349c-3.9 5.3-11.4 6.5-16.8 2.6z"
    />
  </symbol>
  <symbol id="i-coach-trip" viewBox="0 0 20 14" xmlns="http://www.w3.org/2000/svg">
    <path
      d="M15 14a3 3 0 003-3h1a1 1 0 001-1V6.543c0-.35-.123-.69-.348-.96L15.45.54C15.2.242 14.685 0 14.297 0H1a1 1 0 00-1 1v9a1 1 0 001 1h1a3 3 0 106 0h4a3 3 0 003 3zM5 5H2V2h3v3zm5 0H7V2h3v3zm6.563 0H12V2h2.063l2.5 3zM5 12.5a1.5 1.5 0 110-3 1.5 1.5 0 010 3zm10 0a1.5 1.5 0 110-3 1.5 1.5 0 010 3z"
      fill-rule="nonzero"/>
  </symbol>
  <symbol id="i-component-tick-desktop" viewBox="0 0 21 15" xmlns="http://www.w3.org/2000/svg">
    <path d="M2 6.002L6.747 12.8 20 2" stroke="#9BC8AB" stroke-width="3" fill="none"/>
  </symbol>
  <symbol id="i-component-tick-mobile" viewBox="0 0 18 14" xmlns="http://www.w3.org/2000/svg">
    <path d="M2 5.335L5.956 11 17 2" stroke="#9BC8AB" stroke-width="3" fill="none"/>
  </symbol>
  <symbol id="i-copyright" xmlns="http://www.w3.org/2000/svg" viewBox="0 0 92 93">
    <path
      d="M19.603 8.566C29.235 1.765 40.578-.816 51.437.432l21.758 8.426c.576.414 1.14.84 1.698 1.286 1.058.84 2.342 2.098 3.605 3.425l.42.444c2.3 2.453 4.434 5.01 4.869 5.535l.06.072.02.025s6.013 10.66 7.31 16.385c2.106 9.294-2.313 27.715-2.313 27.715s-8.628 14.91-16.075 20.167c-8.17 5.768-25.997 8.533-26.736 8.646l-.024.004c-14.165-.278-28.71-7.267-37.507-19.728a46.145 46.145 0 01-6.994-15.132l-1.076-5.63C-1.623 35.699 5.177 18.748 19.603 8.566zm11.144 16c-8.315 5.87-12.235 15.642-11.039 25.081l.62 3.244a26.536 26.536 0 004.032 8.723c5.071 7.184 13.456 11.213 21.621 11.374 0 0 10.616-1.59 15.427-4.987 1.238-.874 2.527-2.213 3.741-3.67a99.51 99.51 0 01-2.636-2.42l-1.226-1.169-2.442-2.354c-.817-.782-1.64-1.557-2.479-2.315l-.126.14c-.906.961-3.154 2.513-3.154 2.513s-3.435 1.573-5.229 1.823c-2.912.407-8.462-1.429-8.462-1.429s-4.36-3.04-5.784-5.466c-1.596-2.719-1.967-8.453-1.967-8.453.453-4.349 2.98-8.64 7.04-11.022a14.22 14.22 0 014.834-1.759l1.758-.185a14.265 14.265 0 0110.082 3.605c.833-.773 1.705-1.5 2.601-2.198 2.011-2.305 4.037-4.598 6.006-6.939a17.25 17.25 0 00-1.344-1.227 26.499 26.499 0 00-.979-.742l-12.543-4.856a26.473 26.473 0 00-18.352 4.688zm48.36 28.66l-7.518 15.425c-.34.396-.688.783-1.048 1.165-2.159 2.289-7.517 5.988-7.517 5.988s-8.183 3.748-12.459 4.345c-6.94.969-20.165-3.407-20.165-3.407s-10.394-7.244-13.785-13.026c-3.802-6.478-4.685-20.143-4.685-20.143 1.077-10.362 7.098-20.59 16.773-26.266a33.84 33.84 0 018.85-3.627 33.297 33.297 0 012.671-.563l4.19-.441c12.128-.51 24.13 5.52 30.7 16.72a33.774 33.774 0 013.992 23.83"
      fill-rule="evenodd"/>
  </symbol>
  <symbol id="i-cross" xmlns="http://www.w3.org/2000/svg" viewBox="0 0 70 70">
    <path
      d="M54.429 44.516l-5.273-6.69 5.979-5.391 6.983-5.537 7.514-5.118-5.543-8.033L58.121 6.1l-7.368 5.201-6.84 5.757-5.925 3.486-4.04-5.198-4.543-7.683L24.189.721 15.202 5.9l-8.441 6.338 5.339 7.15 4.797 7.542 4.631 6.351-6.521 4.623-7.263 5.16-7.366 5.255 6.312 8.592 6.181 8.927 7.222-5.852 6.825-5.759 6.735-5.393 4.568 6.675 5.252 7.2 4.965 7.213 7.677-5.532 8.673-4.913-5.805-7.271z"
      fill-rule="evenodd"/>
  </symbol>
  <symbol id="i-cursor" xmlns="http://www.w3.org/2000/svg" viewBox="0 0 50 64">
    <path
      d="M33.233 36.391l-1.363-2.072 8.154-3.058 9.837-3.224-8.63-4.3-7.957-4.515-7.772-4.841-7.932-4.557-7.827-4.752L1.899.224l-.194 9.437.095 4.143-.35 5.965-.226 9.252-.313 9.254-.475 9.246.245 9.202 7.244-7.764 6.542-6.422 2.048 4.774 5.137 7.925 3.937 8.804 8.673-5.605 8.861-5.644-5.394-8.163z"
      fill-rule="evenodd"/>
  </symbol>
  <symbol id="i-dog-friendly" viewBox="0 0 16 14" xmlns="http://www.w3.org/2000/svg">
    <path
      d="M6.045 4.957c.967-.255 1.45-1.561 1.08-2.918C6.756.682 5.673-.21 4.706.043c-.967.255-1.45 1.56-1.08 2.918.37 1.357 1.453 2.25 2.42 1.996zm6.33-1.996c.37-1.357-.113-2.663-1.08-2.918-.967-.255-2.05.64-2.42 1.996-.37 1.357.113 2.663 1.08 2.918.967.254 2.05-.64 2.42-1.996zm-10.037 5c.91-.218 1.384-1.272 1.06-2.355C3.072 4.523 2.07 3.822 1.16 4.039.251 4.257-.223 5.311.102 6.394.427 7.477 1.428 8.178 2.338 7.96zm13.56-1.567c.324-1.083-.15-2.137-1.06-2.354-.91-.218-1.91.483-2.236 1.566-.325 1.083.15 2.137 1.06 2.355.91.217 1.91-.484 2.235-1.567zM11.757 14C13.162 14 14 13.348 14 12.258 14 9.836 10.482 6 8 6s-6 3.836-6 6.258C2 13.348 2.838 14 4.242 14c1.526 0 2.534-.784 3.758-.784 1.235 0 2.245.784 3.758.784z"
      fill-rule="nonzero"/>
  </symbol>
  <symbol id="i-down" xmlns="http://www.w3.org/2000/svg" viewBox="0 0 85 96">
    <path
      d="M78.385 48.89l-6.178-5.085-6.486 6.569-6.621 6.834-6.437 7.004-2.735 2.62.529-7.654.37-9.637 1.145-9.611-.425-9.668 1.176-9.603.363-9.635-.352-9.453-8.606-.421-8.576-.245-.417 9.405-.083 9.653-.46 9.641-.225 9.647.184 9.651-.062 9.645-.301 7.509-1.304-1.275-6.96-6.286-7.241-5.979-6.827-5.929-5.653 5.56L.63 58.698l7.456 6.116 7.424 5.738 6.922 6.315 7.033 6.197 7.094 6.136 6.445 5.899.486.517.039-.036.051.047.473-.549 6.407-6.123 6.693-6.763 6.919-6.525 6.649-6.786 6.052-7.392 7.439-6.323z"
      fill-rule="evenodd"/>
  </symbol>
  <symbol id="i-email-icon" xmlns="http://www.w3.org/2000/svg" viewBox="0 0 141.74 141.8">
    <path
      d="M141.73 79.82s-.73-28.66-8.16-42.52C126.98 24.92 105.8 8.92 105.8 8.92S78.49-1.32 63.89.14c-9 .88-26.41 8.07-26.41 8.07s-11.5 7.32-16.22 11.92c-.78.76-1.54 1.55-2.28 2.35l-17 31.65a71 71 0 0069.26 87.67l8.8-.58q2.82-.36 5.63-1a71.35 71.35 0 0018.81-6.86c20.71-11.09 34.14-32 37.24-53.58"
      fill-rule="evenodd"/>
    <path
      d="M30.98 50.02v46.7a4.45 4.45 0 004.28 4.6h73a4.46 4.46 0 004.42-4.5v-46.8c0-2.79-1.67-5-4.42-5H35.42c-2.87 0-4.44 2.24-4.44 5m6.72 4.07a1.63 1.63 0 011.48-1.77h.29c.68 0 27.16 16.78 28.76 17.76l4.15 2.58c1.31-.88 2.63-1.63 4-2.55 2.78-1.77 27.52-17.79 28.2-17.79a1.62 1.62 0 011.77 1.45 1.71 1.71 0 010 .32c0 1.19-2.3 2.37-3.79 3.28-9.4 5.73-18.79 12-28.09 17.91-.54.36-1.59 1.15-2.38 1s-27.82-17.4-32.73-20.26c-.73-.44-1.65-.83-1.65-1.89"
      fill="#fff" fill-rule="evenodd"/>
  </symbol>
  <symbol id="i-external-link" viewBox="0 0 18 16" xmlns="http://www.w3.org/2000/svg">
    <path
      d="M8.028 11.778l7.723-7.777-.06 2.1a.876.876 0 00.875.899h.559A.875.875 0 0018 6.125V1.167C18 .522 17.478 0 16.833 0h-4.958A.875.875 0 0011 .875v.559c0 .493.407.888.9.875l2.1-.06-7.778 7.723a.75.75 0 00-.002 1.062l.746.746a.75.75 0 001.062-.002zM12.5 16a1.5 1.5 0 001.5-1.5V8.725a.75.75 0 00-1.28-.53l-.5.5a.75.75 0 00-.22.53V14H2V4h7.75a.75.75 0 00.53-1.28l-.5-.5A.861.861 0 009.25 2H1.5A1.5 1.5 0 000 3.5v11A1.5 1.5 0 001.5 16h11z"
    />
  </symbol>
  <symbol id="i-facebook" xmlns="http://www.w3.org/2000/svg" viewBox="0 0 11 19">
    <path
      d="M6.836 19v-8.312H9.56l.518-3.439H6.836V5.018c0-.94.453-1.858 1.905-1.858h1.474V.233S8.877 0 7.598 0c-2.67 0-4.415 1.647-4.415 4.628v2.621H.215v3.439h2.968V19h3.653z"
      fill-rule="evenodd"/>
  </symbol>
  <symbol id="i-facebook-icon" data-name="Layer 1" xmlns="http://www.w3.org/2000/svg" viewBox="0 0 141.74 142.8">
    <path
      d="M141.74 79.82s-.73-28.66-8.16-42.52C127 24.92 105.81 8.92 105.81 8.92S78.5-1.32 63.9.14c-9 .9-26.41 8.07-26.41 8.07S26 15.53 21.27 20.13c-.78.76-1.54 1.55-2.28 2.35L2 54.13a71 71 0 0069.26 87.67l8.8-.58c1.88-.24 3.75-.57 5.63-1a71.35 71.35 0 0018.81-6.86c20.71-11.09 34.14-32 37.24-53.58"
      fill-rule="evenodd"/>
    <path
      d="M91.88 63.11H73.23V50.88c0-4.6 3-5.67 5.19-5.67h13.16V25.02l-18.12-.07c-20.12 0-24.7 15.06-24.7 24.7v13.46H37.12v20.81h11.64v58.88h24.47V83.92h16.52z"
      fill="#fff"/>
  </symbol>
  <symbol id="i-family-friendly" viewBox="0 0 20 14" xmlns="http://www.w3.org/2000/svg">
    <path
      d="M6 7c1.934 0 3.5-1.566 3.5-3.5S7.934 0 6 0a3.498 3.498 0 00-3.5 3.5C2.5 5.434 4.066 7 6 7zm9 0a3 3 0 10-.002-6.002A3 3 0 0015 7zm-4.5 7a1.5 1.5 0 001.5-1.5v-.9A3.6 3.6 0 008.4 8h-.26c-.65.313-1.371.5-2.14.5A4.933 4.933 0 013.86 8H3.6A3.6 3.6 0 000 11.6v.9A1.5 1.5 0 001.5 14h9zm8-1a1.5 1.5 0 001.5-1.5C20 9.566 18.434 8 16.5 8h-.119A4.21 4.21 0 0115 8.25c-.488 0-.947-.1-1.381-.25H13.5a3.47 3.47 0 00-1.74.481A4.573 4.573 0 0113 11.6v1.2c0 .069-.016.134-.019.2H18.5z"
      fill-rule="nonzero"/>
  </symbol>
  <symbol id="i-fast-pace" viewBox="0 0 18 13" xmlns="http://www.w3.org/2000/svg">
    <path
      d="M13.5 12a.5.5 0 00.5-.5V11a1 1 0 00-1-1h-3V8.263a2.51 2.51 0 00-1.813-2.404l-1.324-.378a.5.5 0 01.274-.962l1.325.379A3.515 3.515 0 0111 8.263V9l2-1h3.23A1.77 1.77 0 0018 6.23c0-.503-.332-1.149-.741-1.44l-1.763-1.083a6.12 6.12 0 00-.221-1.52C14.92.866 14.277-.109 13.837.008c-.44.118-.51 1.284-.156 2.604.02.076.045.147.067.22a7.108 7.108 0 00-.51-.572c-.966-.966-2.01-1.488-2.332-1.166-.323.322.2 1.366 1.166 2.333.396.396.802.711 1.17.93-.099.18-.179.377-.216.604a1.982 1.982 0 00-.023.291C11.393 4.097 8.175 2 6 2c-1.628 0-2.663.883-3.272 1.69-.056-.084-.093-.177-.167-.25A1.5 1.5 0 10.44 5.56c.512.513 1.29.55 1.872.166l5.981 5.981a1 1 0 00.708.293h4.5zm2-6a.5.5 0 110-1 .5.5 0 010 1zM4.765 12.923l2.084-1.246-1.495-1.495-1.119.714A.556.556 0 004 11.32v1.18a.5.5 0 00.765.423z"
      fill-rule="nonzero"/>
  </symbol>
  <symbol id="i-footprint" xmlns="http://www.w3.org/2000/svg" viewBox="0 0 91 91">
    <path
      d="M90.555 22.37l-3.616-9.78-7.081-8.242L69.832.181 58.85.038l-9.27 4.94-7.892 6.432-5.546 7.894-4.51 8.288-5.88 10.649 8.929 10.843 6.886 8.014 10.155 10.86 11.174-6.28 7.683-5.536 7.669-5.501 6.897-7.33 5.743-9.61-.333-11.33zM19.696 41.482l10.886 11.36 7.936 7.52 10.735 11.416-9.465 10.784-8.889 5.301-10.702 2.284-10.806-3.773-7.799-8.93-1.2-13.809 6.461-11.528 12.843-10.625zm-.865 14.951l-3.41 2.822-3.809 6.796.597 6.876 3.536 4.05 5.166 1.802 5.926-1.265 5.847-3.486 1.752-1.996-3.799-4.04-7.88-7.465-3.926-4.094zm42.693-45.391l6.05.079 5.666 2.353 4.096 4.767 2.309 6.249.186 6.333-3.49 5.839-5.351 5.686-13.747 9.925-3.392 1.907-4.041-4.32-6.7-7.793-4.154-5.047 6.348-11.676 4.489-6.39 5.889-4.8 5.842-3.112z"
      fill-rule="evenodd"/>
  </symbol>
  <symbol id="i-forward-round" xmlns="http://www.w3.org/2000/svg" viewBox="0 0 44 44">
    <path
      d="M40.218 9.29s-2.7-3.255-4.308-4.522a20.642 20.642 0 00-.815-.613L24.65.145A22.181 22.181 0 009.369 4.016a21.863 21.863 0 00-9.193 20.71l.516 2.68a21.901 21.901 0 003.358 7.203C8.272 40.541 15.255 43.868 22.054 44c0 0 8.84-1.313 12.846-4.118 3.575-2.502 7.717-9.6 7.717-9.6s2.12-8.768 1.11-13.192c-.623-2.725-3.51-7.8-3.51-7.8zm-4.06 11.773l.012-.016-.174-.123-1.967-1.698-2.164-1.764-2.1-1.835-2.169-1.75-2.333-1.565-2.053-1.99-1.708 1.832-1.347 1.904 2.101 1.71 2.183 1.741 2.229 1.685.842.724-2.274.034-2.854.128-2.867-.096-2.844.358-2.865-.105-2.853.13-2.783.331.09 2.49.142 2.478 2.787-.11 2.853-.21 2.858-.102 2.854-.17 2.845-.288 2.85-.217 2.224-.096-.344.407-1.682 2.158-1.585 2.233-1.58 2.111 1.782 1.494 2.074 1.446 1.62-2.297 1.508-2.28 1.692-2.147 1.655-2.178 1.635-2.194 1.58-2 .141-.154-.011-.01z"
      fill-rule="evenodd"/>
  </symbol>
  <symbol id="i-forward" xmlns="http://www.w3.org/2000/svg" viewBox="0 0 95 84">
    <path
      d="M94.489 37.639l.042-.055-.586-.425-6.641-5.87-7.302-6.099-7.085-6.346-7.321-6.054-7.875-5.408L50.794.501l-5.763 6.334-4.547 6.584 7.091 5.911 7.367 6.023 7.521 5.824 2.841 2.505-7.671.116-9.634.443-9.673-.332-9.598 1.238-9.668-.364-9.631.45-9.39 1.146.304 8.611.479 8.566 9.406-.377 9.626-.728 9.645-.354 9.632-.588 9.602-.996 9.615-.749 7.507-.334-1.16 1.408-5.677 7.464-5.349 7.719-5.333 7.302 6.016 5.164 6.997 5.001 5.467-7.942 5.092-7.882 5.71-7.428 5.584-7.53 5.516-7.586 5.336-6.917.474-.53z"
      fill-rule="evenodd"/>
  </symbol>
  <symbol id="i-gate" xmlns="http://www.w3.org/2000/svg" viewBox="0 0 92 93">
    <path
      d="M90.383 74.883l-.521-8.472-.04-8.484.522-8.491-.377-8.473-.62-8.468.57-8.49-.561-8.434-6.787.313-.03-.002 5.394-6.452-4.842-4.083L78.789.396l-5.522 6.612-5.416 6.412-6.049 5.83-1.895 2.338-1.184-.02-7.273.562-7.279.44-7.284.027-7.293-.452-7.279.316-7.037.507-.374-5.421-7.247.312-7.456-.49.415 8.447.208 8.3-.085 8.294L.7 50.708l.177 8.294-.074 8.292-.54 8.293.041 8.292-.068 8.52 8.22.225 8.195-.261.014-5.458 3.545-.206 7.287-.186 7.28.08 7.285.04 7.282-.157 7.283.07 7.283.496 7.279-.033 4.448.03-.045 5.04 7.729.235 7.702-.27.024-8.691-.664-8.47zM60.095 41.367l4.578-5.843 1.363.087 7.279-.031 2.847.024-.054 5.385-.026 5.468-1.711.064-7.293.062-7.291-.114-4.887.388 5.195-5.49zm-45.05-5.683l7.291-.398 7.287-.174 7.281.077 7.284.037 4.039-.082-2.883 3.11-5.661 6.176-2.649 3.043-6.376-.402-7.279.327-7.271.54-.306-.017-.258-5.541-.51-6.697h.011zm.387 25.536l.677.039 7.292-.407 1.038-.026-1.969 1.907-5.602 6.228-1.208 1.3-.192-2.986-.036-6.055zm55.748 9.988l-7.293.069-7.292-.113-7.271.606-7.278.476-7.285.038-2.224-.144 4.823-5.684 5.446-5.68 2.446.013 7.283-.15 7.282.068 7.283.476 7.279-.031 1.837.014-.046 5.26-.293 4.599-4.697.183z"
      fill-rule="evenodd"/>
  </symbol>
  <symbol id="i-hat" xmlns="http://www.w3.org/2000/svg" viewBox="0 0 95 92">
    <path
      d="M88.048 65.61l-1.737-9.386-4.57-10.922-5.944-10.684-7.624-9.868-7.113-5.1c.113-.313.214-.613.276-.864.054-.218.103-.435.146-.653l-.434-7.315a14.421 14.421 0 00-6.48-8.03c-4.791-2.79-10.52-2.52-14.926.21L38.175 4.04c-.301.243-.593.5-.876.77-.968.921-1.978 1.914-2.533 3.203-.94 2.181-1.76 8.21-.74 13.29 0 0 .402.612 1.037 1.47l-4.883 2.245-9.098 9.127-6.343 10.51-4.722 11.305-1.722 10.921-4.721.206-3.177 6.121 1.05 7.287.766 7.155 7.335 4.325 11.717-.023 11.68-.94 11.684.776 11.69.211 11.7-.163 11.695-.545 11.337-.01 2.73-9.662.38-13.227-6.113-2.783zm-25.442-.507l-11.787.564-11.815-.122-11.82-.08-7.675.72 1.137-7.214 3.902-9.342 5.239-8.68 6.768-6.79 9.236-4.247-.206-.448c1.299.216 2.265.31 2.265.31s3.37-.66 6.033-1.774l6.593 4.726 6.146 7.957 5.123 9.143 3.996 9.55 1.063 5.744-2.387.1-11.811-.117z"
      fill-rule="evenodd"/>
  </symbol>
  <symbol id="i-hiking" viewBox="0 0 12 16" xmlns="http://www.w3.org/2000/svg">
    <path
      d="M2.531 12.25V7.656c0-1.562 1-2.562 2.469-2.562 1.281 0 1.875.687 1.875 2.156v5h1.281V7.188C8.156 5.063 7.187 4 5.25 4c-1.188 0-2.188.531-2.719 1.5V.469H1.25V12.25h1.281zM7.5 3a1.5 1.5 0 100-3 1.5 1.5 0 000 3zM3.567 7.878l.898-3.472c.175-.666-.292-1.209-.81-1.334-1.34-.32-2.726.478-3.07 1.79l-.55 2.14a1.09 1.09 0 00.81 1.334l1.389.332a1.111 1.111 0 001.333-.79zM11.5 16a.5.5 0 00.5-.5v-10a.5.5 0 00-.5-.5H11a.5.5 0 00-.5.5v.75H9.34L7.775 4.464c-.3-.3-.698-.464-1.121-.464-.73 0-1.363.495-1.54 1.202l-.703 2.815c-.15.593.026 1.23.46 1.664l2.306 2.306a.25.25 0 01.073.177v3.086a.75.75 0 001.5 0v-3.086c0-.467-.181-.907-.513-1.237L6.663 9.353l.768-3.007 1.005 1.148A.752.752 0 009 7.75h1.5v7.75a.5.5 0 00.5.5h.5zM2.213 7.12l-.62-.148.445-1.734c.103-.393.448-.67.851-.727l-.676 2.61zM3.251 16a.75.75 0 00.727-.568l1.046-4.184-.861-.86a2.7 2.7 0 01-.355-.463l-1.285 5.143A.75.75 0 003.25 16z"
      fill-rule="nonzero"/>
  </symbol>
  <symbol id="i-home" xmlns="http://www.w3.org/2000/svg" viewBox="0 0 93 87">
    <path
      d="M86.299 37.724l-6.188-4.915-2.88-2.715-.237-7.176.022-7.903-7.017.052-6.768.17-.068 2.058-.518-.462-5.706-5.462-5.936-5.212-5.98-5.232-.804.968-5.615 5.151-6.497 6.076-6.357 6.212-6.55 6-6.326 6.24-5.807 6.774-7.006 5.811 5.006 5.58 5.32 4.532 4.112-4.125.648 8.092-.656 8.61.028 8.605.62 8.428h.05l.074 1.566 8.765.15 9.09-.02 9.085.711 9.085-.768 9.085.741 9.08-.026 1.344.012 7.516-.094-.006-.614.038-.003.062-7.512-.086-7.477-.246-.006-.001-.048-.052-7.933-.244-7.93.05-5.446 4.686 4.222 5.03-4.784 4.965-5.645-6.21-5.253zm-25.95 32.782l-9.076.551-9.084.32-9.088.017-3.207.091-.185-4.647-.074-8.61-.287-8.607-.537-8.597.066-5.097.259-.298 6.313-6.249 6.16-6.408 3.643-3.362 2.382 2.193 6.054 5.078 5.904 5.242 3.707 4.021-.08 2.647.017 7.933-.645 7.931.693 7.927-.668 7.882-2.267.042z"
      fill-rule="evenodd"/>
  </symbol>
  <symbol id="i-information" xmlns="http://www.w3.org/2000/svg" viewBox="0 0 27 94">
    <path
      d="M2.499 34.87l11.137.285 10.91.335.718 11.354-.206 11.81.663 11.789.326 11.803.05 11.514-12.194-.08-12.231-.313-.626-11.547.158-11.792L2.28 58.251l-.731-11.81.95-11.57zM6.416 2.897A13.026 13.026 0 0115.45.589l6.175 2.39c.163.118.323.24.482.366.95.755 2.546 2.696 2.546 2.696l.12.218.106.194c.476.883 1.564 2.98 1.849 4.238.597 2.637-.657 7.865-.657 7.865s-2.448 4.231-4.561 5.722c-2.368 1.672-7.594 2.455-7.594 2.455-4.02-.078-8.148-2.062-10.644-5.598a13.09 13.09 0 01-1.985-4.294l-.306-1.598c-.588-4.646 1.34-9.457 5.435-12.346z"
      fill-rule="evenodd"/>
  </symbol>
  <symbol id="i-instagram" xmlns="http://www.w3.org/2000/svg" viewBox="0 0 448 512">
    <path
      d="M224.1 141c-63.6 0-114.9 51.3-114.9 114.9s51.3 114.9 114.9 114.9S339 319.5 339 255.9 287.7 141 224.1 141zm0 189.6c-41.1 0-74.7-33.5-74.7-74.7s33.5-74.7 74.7-74.7 74.7 33.5 74.7 74.7-33.6 74.7-74.7 74.7zm146.4-194.3c0 14.9-12 26.8-26.8 26.8-14.9 0-26.8-12-26.8-26.8s12-26.8 26.8-26.8 26.8 12 26.8 26.8zm76.1 27.2c-1.7-35.9-9.9-67.7-36.2-93.9-26.2-26.2-58-34.4-93.9-36.2-37-2.1-147.9-2.1-184.9 0-35.8 1.7-67.6 9.9-93.9 36.1s-34.4 58-36.2 93.9c-2.1 37-2.1 147.9 0 184.9 1.7 35.9 9.9 67.7 36.2 93.9s58 34.4 93.9 36.2c37 2.1 147.9 2.1 184.9 0 35.9-1.7 67.7-9.9 93.9-36.2 26.2-26.2 34.4-58 36.2-93.9 2.1-37 2.1-147.8 0-184.8zM398.8 388c-7.8 19.6-22.9 34.7-42.6 42.6-29.5 11.7-99.5 9-132.1 9s-102.7 2.6-132.1-9c-19.6-7.8-34.7-22.9-42.6-42.6-11.7-29.5-9-99.5-9-132.1s-2.6-102.7 9-132.1c7.8-19.6 22.9-34.7 42.6-42.6 29.5-11.7 99.5-9 132.1-9s102.7-2.6 132.1 9c19.6 7.8 34.7 22.9 42.6 42.6 11.7 29.5 9 99.5 9 132.1s2.7 102.7-9 132.1z"/>
  </symbol>
  <symbol id="i-introductory-walk" viewBox="0 0 20 16" xmlns="http://www.w3.org/2000/svg">
    <path
      d="M15.25 6H10.5v1.75C10.5 8.99 9.49 10 8.25 10S6 8.99 6 7.75v-3.8L3.972 5.169A1.996 1.996 0 003 6.88V8.36L.5 9.803a.998.998 0 00-.366 1.366l2.5 4.331A1 1 0 004 15.866L7.231 14H11.5c1.103 0 2-.897 2-2h.5c.553 0 1-.447 1-1V9h.25c.416 0 .75-.334.75-.75v-1.5a.748.748 0 00-.75-.75zm4.616-1.169L17.366.5A1 1 0 0016 .134L12.769 2H9.575c-.375 0-.74.106-1.06.303l-1.046.653A.993.993 0 007 3.803V7.75a1.25 1.25 0 102.5 0V5h5.75c.966 0 1.75.784 1.75 1.75v.89l2.5-1.443c.478-.278.64-.888.366-1.366z"
      fill-rule="nonzero"/>
  </symbol>
  <symbol id="i-linkedin-in" xmlns="http://www.w3.org/2000/svg" viewBox="0 0 448 512">
    <path
      d="M100.28 448H7.4V148.9h92.88zM53.79 108.1C24.09 108.1 0 83.5 0 53.8a53.79 53.79 0 01107.58 0c0 29.7-24.1 54.3-53.79 54.3zM447.9 448h-92.68V302.4c0-34.7-.7-79.2-48.29-79.2-48.29 0-55.69 37.7-55.69 76.7V448h-92.78V148.9h89.08v40.8h1.3c12.4-23.5 42.69-48.3 87.88-48.3 94 0 111.28 61.9 111.28 142.3V448z"/>
  </symbol>
  <symbol id="i-location" xmlns="http://www.w3.org/2000/svg" viewBox="0 0 72 95">
    <path
      d="M61.297 10.39l-.755-.649c-1.115-.804-11.115-7.89-18.794-9.12-6.746-1.083-17.06 1.65-19.058 2.208l-1.56.691C19.207 4.731 9.419 11.083 5.666 17.193 3.346 20.969 1.35 28.223.974 29.638l-.178 1.02c-.09 1.056-.517 6.484-.114 9.683.069.55.15 1.095.246 1.636l.288 1.062 8.13 21.676.286.642 14.655 28.296 9.56 1.334 19.42-20.628.627-.79 12.955-19.574.19-.309a35.733 35.733 0 004.312-12.168c1.778-11.098-2.074-23.025-10.054-31.129m-21.42 1.914c3.565.571 9.872 4.315 13.33 6.741 5.158 5.462 7.629 13.31 6.46 20.603a23.885 23.885 0 01-2.794 7.981l-12.567 18.99-13.352 14.18L20.3 60.23l-7.8-20.8c-.03-.189-.055-.378-.08-.569-.167-1.342-.038-4.536.125-6.682.774-2.798 2.22-7.192 3.204-8.792 1.609-2.622 7.129-6.88 10.958-9.385 4.026-1.045 10.27-2.163 13.17-1.699zM29.479 26.186a11.684 11.684 0 00-4.855 11.03l.273 1.427a11.765 11.765 0 001.773 3.837c2.23 3.159 5.918 4.93 9.509 5 0 0 4.669-.698 6.784-2.192 1.888-1.332 4.076-5.114 4.076-5.114l.008-.035c.102-.437 1.085-4.755.578-6.99-.33-1.452-1.853-4.154-1.853-4.154s-1.426-1.735-2.275-2.41c-.142-.112-.285-.22-.431-.326l-5.516-2.135a11.634 11.634 0 00-8.071 2.062z"
      fill-rule="evenodd"/>
  </symbol>
  <symbol id="i-mail" xmlns="http://www.w3.org/2000/svg" viewBox="0 0 86 66">
    <path
      d="M85.155 57.29l-.098-7.661-.438-7.647-.233-7.645.034-7.654-.176-7.647-.258-4.634h.023l-.085-6.675.115-3.982-.166.006-.035-2.736L75.031.99l-9.083.232-9.083-.12-9.082.1-9.073.485-9.075.253-9.08-.05-9.074.189-8.745.3-.006.242-1.284-.024.12 8.736-.712 8.943.765 8.934-.742 8.94.024 8.935.765 8.93-.207 8.829 12.989-.171v-.02l8.536-.014 10.125.746 10.127-.796 10.125.777 10.122-.023 10.12-.796.129.003-.008.306 8.86-.12 1.039.022-.001-.036 1.36-.018.173-7.414zM29.651 14.277l9.082.716 9.078-.763 9.077.746 4.408-.01-3.081 3.54-5.571 5.515-5.437 5.655-3.276 3.025-2.02-2.016-5.124-4.717-5.342-4.48-5.208-4.624-2.377-2.578 5.79-.01zm33.81 37.46l-10.12.514-10.125.27-10.128-.045-10.121.204-8.737.429-.195-6.038.013-8.94-.226-8.937-.453-8 1.03.827 5.657 5.294 5.735 5.197 5.786 5.152 5.626 5.338 5.867 5.137 4.253-2.088.433-.553 4.827-4.396 5.28-4.924 5.157-5.045 5.329-4.858 5.126-5.066.196-.233-.474 5.732.676 7.645-.66 7.652.02 7.648.175 1.976-9.947.109z"
      fill-rule="evenodd"/>
  </symbol>
  <symbol id="i-may-be-muddy" viewBox="0 0 25 21" xmlns="http://www.w3.org/2000/svg">
    <g fill="none" fill-rule="evenodd">
      <path
        d="M19.196.8c-.9-.206-1.818-.3-2.739-.3-.357 0-.715.014-1.073.041-1.066.08-2.113.325-3.137.63L10 1.75H7.5C6.12 1.75 5 3.038 5 4.518c0 1.48 1.12 2.678 2.5 2.678H10c2.352 0 3.123.654 4.091 1.34 1.116.79 2.727 1.339 4.091 1.339 3.53 0 6.818-1.34 6.818-4.018 0-1.892-1.527-4.072-5.804-5.056zM9.375 5.323H7.5c-.339 0-.625-.368-.625-.804 0-.495.342-.893.625-.893h1.875v1.697zM18.182 8c-.944 0-2.18-.409-3.007-.995l-.16-.113c-.819-.585-1.818-1.283-3.765-1.498v-2.03l1.466-.377.033-.009.033-.01c1.076-.32 1.948-.496 2.745-.557.31-.023.62-.036.93-.036.81 0 1.59.085 2.32.253 3.205.738 4.348 2.152 4.348 3.229C23.125 7.198 20.612 8 18.182 8zm-5 3.125a6.2 6.2 0 00-1.176.12c-1.043.203-2.108.648-2.915 1.22-.968.685-1.74 1.339-4.091 1.339H2.5c-1.38 0-2.5 1.2-2.5 2.678 0 1.48 1.12 2.768 2.5 2.768H5l2.247.579c1.024.304 2.07.549 3.137.63.357.027.716.04 1.073.04.92 0 1.84-.093 2.74-.3C18.472 19.215 20 17.035 20 15.143c0-2.679-3.288-4.018-6.818-4.018zm-8.807 6.25H2.5c-.283 0-.625-.398-.625-.893 0-.436.286-.803.625-.803h1.875v1.696zm9.4.997c-.729.168-1.509.253-2.318.253-.31 0-.62-.013-.93-.036-.798-.06-1.67-.237-2.745-.557l-.034-.01-.033-.009-1.465-.377v-2.03c1.947-.216 2.946-.913 3.765-1.498l.16-.113c.827-.586 2.063-.995 3.007-.995 2.43 0 4.943.802 4.943 2.143 0 1.077-1.143 2.491-4.35 3.229z"
        fill-rule="nonzero"/>
      <g stroke="#404142" stroke-linecap="round">
        <path stroke-linejoin="round" d="M12.598 17.879l-.11-2.096-.656-1.87"/>
        <path d="M15.609 17.015l-.083-1.571-.63-1.395"/>
      </g>
      <path stroke="#404142" stroke-linecap="round" d="M16.557 3.054v1.574L16 6.054M19.557 4.054v1.574L19 7.054"/>
    </g>
  </symbol>
  <symbol id="i-menu" xmlns="http://www.w3.org/2000/svg" viewBox="0 0 27 25">
    <path
      d="M3.292 17.94l3.271.05 3.268.332 3.277-.223 3.27.321 3.272.053 3.273.155 3.276-.138-.203 3.262.075 3.248-3.249-.08-3.27-.16-3.271-.048-3.276.037-3.273-.105-3.27-.186-3.274-.056L0 24.233l.012-3.044.078-3.055 3.202-.194zM13.7 9.072l3.275.001 3.274.082 3.276-.048 3.19.067-.013 3.043-.078 3.055-3.201.195-3.272-.05-3.268-.333-3.277.223-3.269-.321-3.273-.053-3.273-.155-3.276.138.197-2.848-.084-2.831 3.252-.025 3.274.057 3.273-.056 3.273-.14zM4.037 0l3.272.05 3.268.332 3.277-.223 3.27.322 3.272.052 3.273.155L26.945.55l-.196 2.848.083 2.832-3.253.024-3.273-.057-3.273.056-3.273.141-3.275-.001-3.274-.082-3.276.048-3.19-.067.013-3.043L.836.194 4.037 0z"
      fill-rule="evenodd"/>
  </symbol>
  <symbol id="i-no-car" viewBox="0 0 172 172" fill="none" xmlns="http://www.w3.org/2000/svg">
    <path
      d="M0 92.5V78.47c.61-4.74 1.16-9.49 2.47-14.1 8.84-31.07 28.66-51.52 59.5-61.24C67.34 1.44 72.91.7 78.48 0H92.5c1.26.18 2.52.36 3.79.53 19.69 2.57 36.63 10.88 50.39 25.14 18.12 18.78 26.13 41.36 24.1 67.42-.93 11.94-4.42 23.13-10.19 33.59-17.48 31.7-53.32 50.16-90.22 42.98-34.05-6.62-56.28-27.24-67.09-60.16-1.81-5.51-2.56-11.26-3.27-17H0zm44.28-22.52c.15-.03.3-.06.45-.1 1.33-3.11 2.6-6.24 4.01-9.31.57-1.25.44-2.08-.57-3.06-5.75-5.66-11.46-11.36-17.12-17.12-1.03-1.04-1.48-.78-2.26.22-2.95 3.79-5.55 7.79-7.72 12.07-6.99 13.77-9.4 28.33-7.1 43.56 2.61 17.32 10.57 31.88 23.77 43.42 17.44 15.24 37.75 20.71 60.49 16.99 11.97-1.96 22.67-7.03 32.22-14.54 1.15-.9.98-1.37.07-2.27-4.8-4.72-9.55-9.5-14.3-14.27-.91-.91-1.78-1.8-3.15-2.04-.78-.13-1.52-.71-1.7-1.48-.58-2.48-2.65-3.75-4.14-5.5-1.1-1.29-2.39-1.74-4.09-1.73-11.57.06-23.15.03-34.72.03-2.11 0-4.23.04-6.34 0-1.33-.03-1.96.46-1.9 1.85.06 1.22.06 2.45-.05 3.67-.19 2.04-1.13 3.16-3.08 3.34-3.38.32-6.78.35-10.16-.01-1.89-.2-2.83-1.38-2.9-3.27-.05-1.39-.08-2.79 0-4.17.07-1.24-.41-1.86-1.55-2.39-3.99-1.86-6.11-5.03-6.14-9.49-.02-2.45-.03-4.9 0-7.35.13-11.33-.97-8.33 4.04-18.16.7-1.36.2-1.64-1.09-1.6-1.72.05-3.45 0-5.17 0-1.35 0-2.08-.67-2.1-2.04-.02-2.06-.02-4.12 0-6.18.01-1.35.7-2.06 2.07-2.07 1.89 0 3.79.09 5.67-.03 2.27-.14 4.16.15 4.58 3.01l-.02.02zm82.1.16c1.113-2.093 2.793-3.143 5.04-3.15 1.78 0 3.56.02 5.34 0 1.52-.02 2.27.7 2.27 2.22v5.84c0 1.52-.73 2.25-2.25 2.24-1.78-.02-3.56.02-5.34 0-1.15-.01-1.37.42-.85 1.42.93 1.77 1.81 3.57 2.69 5.37.84 1.71 1.44 3.48 1.43 5.43-.03 5.06.04 10.13-.03 15.19-.06 4.17-2.13 7.16-5.79 9.05-2.31 1.19-2.65 3.06-.77 4.96 3.96 3.99 7.97 7.93 11.9 11.94.86.88 1.3.81 2.04-.14 2.94-3.79 5.57-7.77 7.76-12.05 7.05-13.8 9.47-28.41 7.21-43.7-2.14-14.47-8.11-27.24-18.16-37.94-18.01-19.18-40.17-26.6-66.06-22.52-11.97 1.89-22.68 6.99-32.22 14.51-1.05.83-1.16 1.29-.16 2.26 5.12 5.03 10.2 10.1 15.23 15.22 1.08 1.1 2.04 1.69 3.62 1.11.86-.32 1.87-.32 2.81-.32 15.69-.02 31.38-.05 47.07 0 5.02.02 8.53 2.44 10.43 7.15.9 2.22 1.86 4.41 2.8 6.6 1.29 3 2.58 6.01 3.99 9.28v.03zM66.37 56.8c.16.22.29.46.47.64 4.91 4.92 9.83 9.82 14.73 14.75.65.65 1.38.82 2.26.82 9.84-.01 19.68-.03 29.52.01 1.55 0 1.67-.49 1.12-1.76-1.87-4.28-3.74-8.56-5.49-12.88-.58-1.43-1.39-1.86-2.89-1.85-12.68.05-25.35.03-38.03.04-.53 0-1.1-.16-1.7.23h.01zm-8.2 41.6c2.11 0 4.22-.03 6.32.01 1.45.03 2.19-.58 2.17-2.06-.02-1.5-.01-3 0-4.49 0-1.28-.57-1.97-1.9-1.96H51.61c-1.15 0-1.77.5-1.76 1.7.01 1.66 0 3.33 0 4.99 0 1.24.59 1.83 1.83 1.82 2.16-.02 4.33 0 6.49 0v-.01zm55.89 0c1.78-.01 3.55-.01 5.33 0 1.17 0 1.74-.58 1.74-1.74V91.5c0-1-.48-1.58-1.51-1.59-4.55-.01-9.1-.01-13.65 0-1 0-1.55.56-1.61 1.54-.14 1.96-.13 3.75 1.64 5.26 1.31 1.11 2.47 1.9 4.25 1.72 1.26-.13 2.55-.03 3.83-.03h-.02zM63.05 73c.12-.18.24-.35.36-.53-1.49-1.38-2.99-2.75-4.47-4.15-.68-.65-1.03-.36-1.32.35-.42 1.02-.86 2.04-1.29 3.05-.33.78-.24 1.29.77 1.28 1.98-.01 3.96 0 5.95 0z"
    />
  </symbol>
  <symbol id="i-no-stiles" viewBox="0 0 12 16" xmlns="http://www.w3.org/2000/svg">
    <path
      d="M7.5 3a1.5 1.5 0 100-3 1.5 1.5 0 000 3zM2.995 8.628l1.286-4.972a.49.49 0 00-.372-.595c-1.371-.33-2.761.47-3.104 1.786l-.79 3.067a.49.49 0 00.373.595l1.986.477a.514.514 0 00.621-.358zM11.5 16a.5.5 0 00.5-.5v-10a.5.5 0 00-.5-.5H11a.5.5 0 00-.5.5V6H9.414L7.952 4.538a1.834 1.834 0 00-3.08.853L4.03 8.758C4.014 8.823 4 8.932 4 9c0 .229.131.545.293.707L7 12.414V15a1 1 0 002 0v-2.586c0-.534-.208-1.036-.586-1.414L6.951 9.537c.005-.016.015-.028.02-.044l.62-2.487.702.701A1 1 0 009 8h1.5v7.5a.5.5 0 00.5.5h.5zm-8 0a1 1 0 00.97-.758l.79-3.155-1.65-1.65-1.08 4.32A1 1 0 003.5 16z"
      fill-rule="nonzero"/>
  </symbol>
  <symbol id="i-play" xmlns="http://www.w3.org/2000/svg" viewBox="0 0 67 79">
    <path
      d="M16.149 7.786L8.187 4.642.328.045l.276 11.618-.509 11.173.904 11.178.109 11.181-.751 11.177-.26 11.183.563 11.026 9.921-3.58 9.409-7.51 10.224-6.226 9.571-7.192 10.506-5.814 9.576-7.2 6.49-3.829-8.371-5.822-10.387-6.002-10.319-6.161-10.94-5.044-10.191-6.415zM40.737 37.82l-7.714 4.822-8.831 3.997-7.996 5.23.516-12.724-.764-13.1 12.938 5.5 11.851 6.275z"
      fill-rule="evenodd"/>
  </symbol>
  <symbol id="i-public-transport" viewBox="0 0 16 16" xmlns="http://www.w3.org/2000/svg">
    <path
      d="M4 16a1 1 0 001-1v-1h6v1a1 1 0 001 1h1a1 1 0 001-1v-1h.2c.5 0 .8-.4.8-.8V8h.25a.75.75 0 00.75-.75v-2.5a.75.75 0 00-.75-.75H15V2.5C15 1.1 11.9 0 8 0S1 1.1 1 2.5V4H.75a.75.75 0 00-.75.75v2.5c0 .414.336.75.75.75H1v5a1 1 0 001 1v1a1 1 0 001 1h1zm8-7H4a1 1 0 01-1-1V4a1 1 0 011-1h8a1 1 0 011 1v4a1 1 0 01-1 1zm-8.5 3.5a1 1 0 110-2 1 1 0 010 2zm9 0a1 1 0 110-2 1 1 0 010 2z"
      fill-rule="nonzero"/>
  </symbol>
  <symbol id="i-pushchair-friendly" viewBox="0 0 86 101" fill="none" xmlns="http://www.w3.org/2000/svg">
    <path
      d="M40.62 0c1.21.38 2.48.21 3.72.35 5.6.67 10.53 2.93 15.09 6.14.73.52.55.98.09 1.55-3.36 4.13-6.7 8.27-10.05 12.41-4.4 5.44-8.8 10.89-13.22 16.31-.56.69-.6 1.2-.03 1.88 4.49 5.28 8.97 10.57 13.43 15.88.56.67 1.2.92 2.05.92 5.06-.02 10.12-.01 15.18 0 1.63 0 1.72.1 1.73 1.74v2.47c-.02 1.32-.17 1.49-1.47 1.49-3.29.01-6.57 0-9.86.01-.51 0-1.23-.24-1.47.24-.29.58.44.95.77 1.34 4.61 5.49 9.25 10.94 13.85 16.43.57.68 1.18.64 1.94.51 4.32-.7 7.99.52 10.64 4.06 2.64 3.52 2.99 7.42.97 11.33-2 3.87-5.33 5.83-9.71 5.75-4.47-.08-7.67-2.27-9.53-6.31-.47-1.01-1.02-1.43-2.15-1.43-7.59.04-15.18.03-22.78 0-.99 0-1.51.33-1.93 1.26-1.83 4.03-4.94 6.33-9.43 6.47-4.46.13-7.85-1.83-9.89-5.77-2.04-3.95-1.64-7.88 1.03-11.42 2.41-3.18 5.77-4.47 9.73-4.07 1.09.11 1.61-.23 2.01-1.21.98-2.4 2.03-4.78 3.09-7.15.38-.84.41-1.59.03-2.45-4.32-9.8-8.62-19.62-12.92-29.43-2.46-5.6-4.94-11.18-7.37-16.79-.37-.84-.86-1.23-1.78-1.21-1.81.04-3.62.03-5.42 0-.87 0-1.26.38-1.24 1.25.02.92-.01 1.84 0 2.76 0 .73-.34 1.1-1.08 1.1H1.09c-.75 0-1.06-.39-1.06-1.11v-8.58c0-.95.56-1.13 1.35-1.13 3.65.01 7.3-.03 10.94.02 1.07.01 1.74-.33 2.34-1.25C20.02 6.13 27.64 1.48 37.39.28 38.4.16 39.44.36 40.42 0h.2zm10.64 87.18c3.87 0 7.75-.01 11.62.01.87 0 1.42-.27 1.71-1.13.28-.84.76-1.61 1.3-2.31.43-.56.34-.97-.09-1.47-2.48-2.89-4.93-5.8-7.39-8.71-.43-.51-.94-.8-1.61-.8H40.94c-.75 0-1.22.32-1.52 1.01-1.12 2.59-2.24 5.18-3.39 7.76-.29.65-.2 1.19.25 1.73.66.79 1.25 1.64 1.56 2.61.34 1.09 1.03 1.34 2.08 1.33 3.78-.04 7.55-.02 11.33-.02l.01-.01z"
    />
  </symbol>
  <symbol id="i-quote-end" xmlns="http://www.w3.org/2000/svg" viewBox="0 0 60 62">
    <path
      d="M37.435 7.222l11.012.527 10.967.34-.606 11.558-.322 11.462.214 11.556-11.491 9.53-11.76 9.147-14.127-7.96 9.084-9.864 7.822-11.012-.334-12.563-.46-12.721zM8.151.289L19.58.615l10.567 1.28.889 13.074-1.164 13.427-7.655 11.153-8.053 11.757-13.97-5.792 4.93-9.567 5.845-8.905-2.026-13.188L8.151.289z"
      fill-rule="evenodd"/>
  </symbol>
  <symbol id="i-quote-start" xmlns="http://www.w3.org/2000/svg" viewBox="0 0 63 59">
    <path
      d="M15.081.174l16.055 2.261-4.862 12.497-3.268 13.106 4.891 11.577 5.065 11.678-10.448 3.524-10.336 3.681-3.649-10.983-3.878-10.79L.238 26.042l7.226-13.064L15.081.174zm23.477 1.585l15.122.3-1.104 10.707-2.196 10.423 6.694 11.541 5.684 12.343-10.762 3.863-10.306 2.661-5.595-11.85-3.81-12.928 3.061-13.177 3.212-13.883z"
      fill-rule="evenodd"/>
  </symbol>
  <symbol id="i-rain" xmlns="http://www.w3.org/2000/svg" viewBox="0 0 104 92">
    <path
      d="M97.084 30.231l-7.457-8.27-10.285-3.08-10.809 1.75-4.344-9.498-7.22-7.248-9.067-.735-8.879-1.966-8.858-.5-7.875 7.952-7.553 8.584-1.019 15.149-9.712 4.916L.146 49.42l3.216 9.817 7.901 5.98 8.764 1.048-12.459 22.14 11.051 2.729 13.623-24.208 8.81-.517 2.691.08-9.62 17.57 8.214 7.075 13.628-24.22 4.895.205 7.129-.241L57.84 88.493l8.277 2.64 13.554-24.087.985.03 8.594-1.611 7.435-4.6 4.248-9.945 2.169-10.77-6.018-9.918zm-8.032 20.705l-8.323 4.538-10.205.943-10.196-.144-10.191-.715-10.193.695-10.191-.426-10.202.168.073.497-6.023-1.856-2.382-5.12 8.938-6.875 7.389-.091-1.796-11.445.849-11.369 7.94-7.302 8.066-.19 8.567.61 4.599 11.885 4.536 11.926 8.011-4.26 8.082-3.713 9.986 4.702 6.885 8.975-4.219 8.567z"
      fill-rule="evenodd"/>
  </symbol>
  <symbol id="i-refreshments" viewBox="0 0 13 16" xmlns="http://www.w3.org/2000/svg">
    <path
      d="M10.063 16c.518 0 .965-.42.998-.938l1-14L12.063 1a1 1 0 00-1-1h-10a1 1 0 00-.999 1.063l1 14c.03.48.418.876.889.93l.11.007h8zM9.774 5H2.351l-.215-3h7.852l-.214 3z"/>
  </symbol>
  <symbol id="i-rest-stop-available" viewBox="0 0 20 21" xmlns="http://www.w3.org/2000/svg">
    <path
      d="M15.625 8H1.25C.559 8 0 8.559 0 9.25v7.5c0 2.07 1.68 3.75 3.75 3.75h7.5c2.07 0 3.75-1.68 3.75-3.75h.625A4.378 4.378 0 0020 12.375 4.378 4.378 0 0015.625 8zm-2.5 8.75c0 1.035-.84 1.875-1.875 1.875h-7.5a1.875 1.875 0 01-1.875-1.875V9.875h11.25v6.875zm2.5-1.875H15v-5h.625c1.379 0 2.5 1.121 2.5 2.5s-1.121 2.5-2.5 2.5zM9.34 6.223c.05.3.312.527.625.527h.644c.383 0 .688-.332.637-.703a5.107 5.107 0 00-1.43-2.918 3.704 3.704 0 01-1.03-2.09.63.63 0 00-.63-.539h-.64a.635.635 0 00-.637.703A5.678 5.678 0 008.465 4.5c.469.477.77 1.074.875 1.723zm-4.375 0c.05.3.312.527.625.527h.644c.383 0 .688-.332.637-.703a5.107 5.107 0 00-1.43-2.918 3.704 3.704 0 01-1.03-2.09A.63.63 0 003.78.5h-.64a.637.637 0 00-.637.703A5.678 5.678 0 004.09 4.5c.469.477.77 1.074.875 1.723z"
      fill-rule="nonzero"/>
  </symbol>
  <symbol id="i-search" xmlns="http://www.w3.org/2000/svg" viewBox="0 0 88 87">
    <path
      d="M81.124 68.768L74.019 63.3l-6.151-6.494-4.192-3.431c3.502-6.022 5.655-16.865 5.655-16.865s-1.325-14.175-5.078-20.275c-2.311-3.757-9.175-9.882-9.175-9.882s-5.66-3.5-8.688-4.581a32.55 32.55 0 00-1.52-.503L27.349.555c-8.027 1.746-15.47 6.333-20.67 13.508-7.791 10.742-8.516 24.449-3.068 35.593l2.13 3.742a34.649 34.649 0 008.647 9.067c9.28 6.73 21.322 8.173 31.465 4.935 0 0 3.21-1.663 6.96-4.112l4.58 4.979 6.632 6 5.806 6.837 6.52 5.652 5.264-5.772 6.117-5.835-6.608-6.381zM31.607 55.02s-7.371-2.12-10.443-4.77c-3.444-2.968-6.621-10.625-6.621-10.625-1.407-6.148.044-13.184 4.478-18.327a20.554 20.554 0 015.782-4.652l2.315-1.072c6.849-2.661 14.904-1.551 20.857 3.582a20.444 20.444 0 016.944 12.874l-1.294 10.306c-.116.293-.241.583-.372.872-.79 1.733-3.137 4.9-3.137 4.9s-3.956 3.746-6.29 4.924c-3.786 1.91-12.22 1.988-12.22 1.988z"
      fill-rule="evenodd"/>
  </symbol>
  <symbol id="i-signpost" xmlns="http://www.w3.org/2000/svg" viewBox="0 0 96 104">
    <path
      d="M89.844 12.952l-5.428-4.939-6.796.568-6.702.555-6.712.167-6.723-.287-3.838.252-.43-8.46-9.447.477-9.636-.676.335 8.785.325 8.497-.043.604-.576-.006-6.116-.029-6.11.127-6.114-.054-6.171-.376-4.419 5.032-4.544 5.065 4.383 5.204 4.553 4.962 6.189-.752 6.148.183 6.108-.463 6.093-.638.572.019.174 6.598-.093 8.49-.043 8.489.189 8.489-.081 8.484-.583 8.493.043 8.489-.044 8.766 10.492.212 10.467-.256-.723-8.73.397-8.511-.351-8.489.204-8.5-.489-8.485-.071-8.491.144-8.494-.708-8.478-.454-6.952 4.297.045 6.702.034 6.706-.139 6.704.062 6.763.428 5.291-5.034 5.441-5.081z"
      fill-rule="evenodd"/>
  </symbol>
  <symbol id="i-slower-pace" viewBox="0 0 16 14" xmlns="http://www.w3.org/2000/svg">
    <path
      d="M8.706 13.697l6.047-6.244c1.76-1.815 1.656-4.822-.306-6.497-1.713-1.46-4.26-1.197-5.831.425L8 2.016l-.616-.635C5.816-.24 3.266-.503 1.554.956-.41 2.631-.514 5.638 1.243 7.453l6.047 6.244a.98.98 0 001.415 0z"
      fill-rule="nonzero"/>
  </symbol>
  <symbol id="i-some-inclines" viewBox="0 0 22 13" xmlns="http://www.w3.org/2000/svg">
    <path d="M1 11.818h20l-4.209-10.59z" stroke="#404141" stroke-width="2" fill="none" fill-rule="evenodd"
          stroke-linejoin="round"/>
  </symbol>
  <symbol id="i-sun" xmlns="http://www.w3.org/2000/svg" viewBox="0 0 102 101">
    <path
      d="M79.145 55.455s-.3-11.705-3.331-17.367c-2.704-5.054-11.343-11.59-11.343-11.59s-11.153-4.18-17.116-3.584c-3.672.367-10.79 3.296-10.79 3.296s-4.701 2.982-6.621 4.865c-.321.314-.631.634-.934.961l-6.94 12.927a28.878 28.878 0 002.617 20.494c5.24 9.788 15.292 15.341 25.67 15.311l3.596-.236a28.965 28.965 0 009.983-3.196c8.456-4.526 13.94-13.063 15.209-21.88m-6.222 22.402l4.593 7.631 4.25 8.407-7.457 3.338-6.632 3.56-3.935-8.026-2.827-8.503 5.908-3.396 6.1-3.01zm-43.284 2.007l6.664 1.489 6.536 1.931-1.614 8.019-2.394 8.382-7.737-2.601-7.298-1.888 2.364-7.865 3.479-7.467zM17.64 56.597l2.23 6.438 1.817 6.554-8.428 3.107-9.123 2.626-1.885-7.952-2.257-7.18 8.692-2.387 8.954-1.206zm65.996-4.702l8.643.9 9.045 1.602-1.772 7.96-1.135 7.461-8.563-1.659-8.295-2.767.833-6.786 1.244-6.71zM55.834 35.709l7.285 4.74c.178.194.35.394.52.598 1.016 1.227 2.543 4.151 2.543 4.151s1.374 4.347 1.408 6.533c.056 3.55-2.967 9.924-2.967 9.924s-4.288 4.774-7.405 6.12c-3.493 1.506-10.417 1.1-10.417 1.1-5.141-1.186-9.907-4.849-12.16-10.065a17.225 17.225 0 01-1.388-6.052l.039-2.134c.499-6.128 4.277-11.785 10.315-14.39a17.109 17.109 0 0112.227-.525zm-40.925-21.12l7.314 5.867 6.505 6.782-3.92 5.565-4.244 5.308-7.745-5.234-7.75-6.073 5.346-6.186 4.494-6.03zm70.885-1.596l5.25 6.263 5.235 5.406-6.708 6.039-7.472 5.1-4.879-4.756-4.562-5.043 6.15-6.564 6.986-6.445zM43.185.609l8.152.612 7.522.02-.358 9.249-1.572 9.142-6.807.168-6.793-.25-.407-9.216.263-9.725z"
      fill-rule="evenodd"/>
  </symbol>
  <symbol id="i-tick" xmlns="http://www.w3.org/2000/svg" viewBox="0 0 82 79">
    <path
      d="M74.117 6.346L65.954.499l-6.356 7.976-5.616 8.414-6.954 7.373-5.487 8.508-6.125 8.012-6.272 7.896-.038.047-.384-.275-7.008-6.599-7.51-5.572-7.278 7.453-6.33 8.541 8.017 5.348 7.097 6.585 1.347.804 8.231 6.317 8.743 7.113 5.994-8.621 5.616-8.399 5.822-8.241 6.435-7.796 6.263-7.918 5.344-8.588 5.859-8.209 6.57-7.909z"
      fill-rule="evenodd"/>
  </symbol>
  <symbol id="i-toilets" viewBox="0 0 12 16" xmlns="http://www.w3.org/2000/svg">
    <path
      d="M9 16a1 1 0 00.956-1.29l-.669-2.194A5.993 5.993 0 0012 7.5c0-.41-.369-.787-1-1.103V1.5h.5c.275 0 .5-.225.5-.5V.5c0-.275-.225-.5-.5-.5H.5C.225 0 0 .225 0 .5V1c0 .275.225.5.5.5H1v4.897C.369 6.713 0 7.09 0 7.5c0 2.1 1.081 3.944 2.712 5.016l-.668 2.193A1 1 0 003 16h6zM4.25 3h-1.5a.25.25 0 01-.25-.25v-.5A.25.25 0 012.75 2h1.5a.25.25 0 01.25.25v.5a.25.25 0 01-.25.25zM6 8.5c-2.41 0-4.362-.447-4.362-1 0-.553 1.953-1 4.362-1 2.41 0 4.362.447 4.362 1 0 .553-1.953 1-4.362 1z"
      fill-rule="nonzero"/>
  </symbol>
  <symbol id="i-tree" xmlns="http://www.w3.org/2000/svg" viewBox="0 0 76 105">
    <path
      d="M69.074 82.699l-6.126-5.793-6.191-5.715-5.986-5.95-5.435-4.489-.015-3.64.169-7.88-.066-.828.896.853 4.908 4.774 4.853 4.839 4.794 5.001 4.176-4.18 3.278-4.479-4.731-4.583-4.818-4.862-5.246-4.397-4.807-4.885-4.338-4.085.002-6.782.271-3.79 3.301 3.34 4.508 4.033 4.254 4.529 3.443-4.34 3.98-3.821-4.726-3.985-4.42-4.099-4.266-4.269-4.74-3.759-4.179-4.377L37.311.954l-.027-.031-.003.003-.037-.034-.176.236-4.33 4.108L28.529 9.7l-4.785 3.847-4.041 4.629-4.556 4.081-4.589 4.061 3.407 4.14 3.905 3.539 4.466-4.094 4.346-4.323 4.263-4.392.931-.98.206 5.426-.537 7.558-3.426 2.89-4.339 4.67-4.729 4.247-4.566 4.419-4.541 4.448-4.962 4.082 4.278 4.047 3.76 4.332 4.37-4.527 4.773-4.223 4.72-4.275 4.363-4.629.908-.949.041 1.546-.088 7.876-.012 2.115-4.829 5.206-5.641 4.695-5.058 5.304-5.586 4.749-5.361 4.984-4.947 5.204 4.479 4.822 4.524 4.884 5.268-4.985 5.117-5.255 5.043-5.323 5.367-4.985 1.73-1.766-.039 3.974-.542 7.878.037 7.876-.079 8.098 7.276.234 7.249-.269-.669-8.068.404-7.896-.291-7.875.071-2.5 2.505 2.369 6.391 5.523 5.72 6.236 6.294 5.396 4.294-4.942 5.19-4.84z"
      fill-rule="evenodd"/>
  </symbol>
  <symbol id="i-twitter" xmlns="http://www.w3.org/2000/svg" viewBox="0 0 512 512">
    <path
      d="M459.37 151.716c.325 4.548.325 9.097.325 13.645 0 138.72-105.583 298.558-298.558 298.558-59.452 0-114.68-17.219-161.137-47.106 8.447.974 16.568 1.299 25.34 1.299 49.055 0 94.213-16.568 130.274-44.832-46.132-.975-84.792-31.188-98.112-72.772 6.498.974 12.995 1.624 19.818 1.624 9.421 0 18.843-1.3 27.614-3.573-48.081-9.747-84.143-51.98-84.143-102.985v-1.299c13.969 7.797 30.214 12.67 47.431 13.319-28.264-18.843-46.781-51.005-46.781-87.391 0-19.492 5.197-37.36 14.294-52.954 51.655 63.675 129.3 105.258 216.365 109.807-1.624-7.797-2.599-15.918-2.599-24.04 0-57.828 46.782-104.934 104.934-104.934 30.213 0 57.502 12.67 76.67 33.137 23.715-4.548 46.456-13.32 66.599-25.34-7.798 24.366-24.366 44.833-46.132 57.827 21.117-2.273 41.584-8.122 60.426-16.243-14.292 20.791-32.161 39.308-52.628 54.253z"/>
  </symbol>
  <symbol id="i-twitter-icon" xmlns="http://www.w3.org/2000/svg" viewBox="0 0 141.74 141.8">
    <path
      d="M141.73 79.82s-.73-28.66-8.16-42.52C126.98 24.92 105.8 8.92 105.8 8.92S78.49-1.32 63.89.14c-9 .88-26.41 8.07-26.41 8.07s-11.5 7.32-16.22 11.92c-.78.76-1.54 1.55-2.28 2.35l-17 31.65a71 71 0 0069.26 87.67l8.8-.58q2.82-.36 5.63-1a71.35 71.35 0 0018.81-6.86c20.71-11.09 34.14-32 37.24-53.58"
      fill-rule="evenodd"/>
    <path
      d="M58.74 104.02c30.72 0 47.52-25.46 47.52-47.52v-2.19a34.2 34.2 0 008.35-8.66 33.37 33.37 0 01-9.63 2.63 16.74 16.74 0 007.36-9.26 33.9 33.9 0 01-10.6 4.06 16.71 16.71 0 00-28.91 11.45 15.33 15.33 0 00.45 3.81 47.46 47.46 0 01-34.43-17.47 16.69 16.69 0 005.2 22.27 16.38 16.38 0 01-7.55-2.12v.21a16.71 16.71 0 0013.4 16.38 16.47 16.47 0 01-7.55.28 16.66 16.66 0 0015.63 11.64 33.56 33.56 0 01-20.75 7.14 29.72 29.72 0 01-4-.24 46.56 46.56 0 0025.49 7.59z"
      fill="#fff" fill-rule="evenodd"/>
  </symbol>
  <symbol id="i-uneven-ground" viewBox="0 0 23 7" xmlns="http://www.w3.org/2000/svg">
    <path d="M0 3.076v3.927h23V3.076l-3-1.83-2.748 1.83L10 .003 8.346 3.076l-3.971-1.83L3 3.075.89 1.246z"
          fill-rule="evenodd"/>
  </symbol>
  <symbol id="i-up" xmlns="http://www.w3.org/2000/svg" viewBox="0 0 84 95">
    <path
      d="M75.639 28.231l-7.882-5.093-7.428-5.709-7.529-5.584-7.587-5.516L38.296.993l-.529-.474-.035.038-.055-.042-.426.586-5.868 6.642-6.1 7.301-6.346 7.085-6.054 7.321-5.408 7.875-6.881 6.928 6.334 5.763 6.584 4.546 5.912-7.091 6.022-7.366 5.824-7.522 2.505-2.841.116 7.671.444 9.635-.333 9.672 1.238 9.598-.364 9.668.45 9.631 1.147 9.39 8.61-.304 8.566-.478-.377-9.407-.728-9.626-.354-9.644-.588-9.632-.995-9.602-.75-9.616-.334-7.507 1.408 1.161 7.464 5.677 7.719 5.348 7.302 5.334 5.164-6.016 5.002-6.997z"
      fill-rule="evenodd"/>
  </symbol>
  <symbol id="i-whatsapp" xmlns="http://www.w3.org/2000/svg" viewBox="0 0 141.74 141.8">
    <path
      d="M141.73 79.82s-.73-28.66-8.16-42.52C126.98 24.92 105.8 8.92 105.8 8.92S78.49-1.32 63.89.14c-9 .88-26.41 8.07-26.41 8.07s-11.5 7.32-16.22 11.92c-.78.76-1.54 1.55-2.28 2.35l-17 31.65a71 71 0 0069.26 87.67l8.8-.58q2.82-.36 5.63-1a71.35 71.35 0 0018.81-6.86c20.71-11.09 34.14-32 37.24-53.58"
      fill-rule="evenodd"/>
    <path
      d="M101.21 40.38a41.25 41.25 0 00-64.92 49.76l-5.86 21.39 21.87-5.73a41.26 41.26 0 0019.71 5 41.25 41.25 0 0029.18-70.41zm-29.23 63.45a34.13 34.13 0 01-17.43-4.81l-1.26-.74-13 3.4 3.46-12.66-.77-1.25a34.29 34.29 0 1129 16.06zm18.83-25.67c-1-.52-6.1-3-7-3.35s-1.63-.52-2.32.51a50.15 50.15 0 01-3.26 4 1.61 1.61 0 01-2.23.26 28 28 0 01-8.31-5 31 31 0 01-5.71-7.21c-.6-1-.06-1.59.46-2.1s1-1.21 1.54-1.81a6.73 6.73 0 001-1.72 1.86 1.86 0 00-.08-1.8c-.26-.52-2.32-5.59-3.18-7.65s-1.74-1.76-2.32-1.76h-2a3.81 3.81 0 00-2.75 1.29 11.53 11.53 0 00-3.61 8.6c0 5.07 3.69 10 4.21 10.66s7.27 11.09 17.61 15.55a55 55 0 005.87 2.17 14.11 14.11 0 006.49.41c2-.29 6.1-2.49 7-4.9s.86-4.47.6-4.9-.94-.68-2-1.2z"
      fill="#fff" fill-rule="evenodd"/>
  </symbol>
  <symbol id="i-wheelchair-accessible" viewBox="0 0 20 21" xmlns="http://www.w3.org/2000/svg">
    <path
      d="M19.535 16.116a.469.469 0 00-.63-.21l-1.595.82-2.391-5.358c-.137-.307-.52-.555-.856-.555H8.007l-.25-1.875h5.523c.26 0 .469-.21.469-.47v-.937a.469.469 0 00-.469-.468H7.508l-.377-2.83a1.875 1.875 0 001.617-1.939A1.875 1.875 0 005 2.374c.01.175-.088-.599 1.258 9.5.062.466.46.814.93.814h6.266l2.542 5.694a.938.938 0 001.272.458l2.472-1.256a.469.469 0 00.211-.628l-.416-.84zm-7.297-1.553h-.452a5.008 5.008 0 01-4.911 4.062c-2.757 0-5-2.243-5-5 0-1.71.863-3.221 2.175-4.123l-.269-2.015A6.882 6.882 0 000 13.625 6.883 6.883 0 006.875 20.5a6.884 6.884 0 006.236-3.982l-.873-1.955z"
      fill-rule="nonzero"/>
  </symbol>
  <symbol id="i-youtube" xmlns="http://www.w3.org/2000/svg" viewBox="0 0 576 512">
    <path
      d="M549.655 124.083c-6.281-23.65-24.787-42.276-48.284-48.597C458.781 64 288 64 288 64S117.22 64 74.629 75.486c-23.497 6.322-42.003 24.947-48.284 48.597-11.412 42.867-11.412 132.305-11.412 132.305s0 89.438 11.412 132.305c6.281 23.65 24.787 41.5 48.284 47.821C117.22 448 288 448 288 448s170.78 0 213.371-11.486c23.497-6.321 42.003-24.171 48.284-47.821 11.412-42.867 11.412-132.305 11.412-132.305s0-89.438-11.412-132.305zm-317.51 213.508V175.185l142.739 81.205-142.739 81.201z"/>
  </symbol>
  <symbol id="i-meetup" xmlns="http://www.w3.org/2000/svg" viewBox="0 0 54 54">
    <path
      d="M5.1,24.8c0.1,0.6,0,1.1-0.3,1.6c-0.3,0.5-0.8,0.8-1.4,0.9s-1.1,0-1.6-0.4c-0.5-0.3-0.8-0.8-0.9-1.4 c-0.1-0.6,0-1.1,0.3-1.6C1.6,23.4,2,23.1,2.6,23s1.1,0,1.6,0.3C4.7,23.7,5,24.2,5.1,24.8z M43.9,28.4c1.3,2.1,1.7,4.4,1.2,6.8 c-0.5,2.4-1.7,4.4-3.8,5.8c-1.7,1.2-3.5,1.7-5.6,1.7c-0.4,1.5-1.2,2.7-2.4,3.5c-1.2,0.9-2.5,1.3-4,1.2c-1.5,0-2.8-0.6-3.9-1.6 c-0.2,0.2-0.3,0.3-0.4,0.3c-1.9,1.3-4,1.8-6.3,1.4s-4.1-1.6-5.4-3.5c-0.9-1.4-1.4-2.9-1.5-4.6c-1.5-0.3-2.9-0.9-4-2 c-1.1-1.1-1.9-2.2-2.2-3.6c-0.4-1.3-0.4-2.7-0.1-4.2c0.4-1.5,1.1-2.8,2.3-3.9c-0.7-1.1-1-2.3-1.1-3.6c0-1.3,0.2-2.4,0.7-3.5 c0.5-1.1,1.2-2,2.2-2.7c1-0.8,2.1-1.2,3.4-1.4c0.6-1.6,1.5-3,2.8-4.1c1.2-1.2,2.6-2,4.1-2.6s3-0.7,4.7-0.5s3.1,0.8,4.5,1.9 c1.3-0.4,2.6-0.6,3.9-0.5c1.3,0.1,2.5,0.4,3.6,1s2.1,1.3,2.9,2.2c0.8,0.9,1.4,2,1.9,3.2c0.4,1.3,0.6,2.6,0.5,3.9 c1,0.3,1.8,0.8,2.4,1.6c0.7,0.8,1.1,1.6,1.3,2.5s0.1,1.8-0.2,2.8C45.2,27,44.7,27.8,43.9,28.4z M10.1,41.1c0.2,0.1,0.4,0.4,0.4,0.6 c0.1,0.3,0,0.5-0.1,0.8c-0.1,0.2-0.4,0.4-0.6,0.4c-0.3,0.1-0.5,0-0.7-0.1c-0.2-0.1-0.4-0.4-0.4-0.6c-0.1-0.3,0-0.5,0.1-0.8 c0.1-0.2,0.4-0.4,0.6-0.4C9.6,40.9,9.9,40.9,10.1,41.1z M12.6,10c0.3,0.4,0.3,0.8,0.3,1.2c-0.1,0.5-0.3,0.8-0.7,1.1 c-0.4,0.3-0.8,0.3-1.2,0.3c-0.5-0.1-0.8-0.3-1-0.7c-0.3-0.4-0.3-0.8-0.3-1.2c0.1-0.5,0.3-0.8,0.7-1.1c0.4-0.3,0.8-0.3,1.2-0.3 C12,9.4,12.3,9.6,12.6,10z M37.1,35.7c-0.1-0.4-0.3-0.8-0.8-0.9c-0.4-0.2-0.9-0.3-1.4-0.3c-0.5,0-0.9-0.1-1.4-0.3s-0.7-0.6-0.7-1.1 c-0.1-0.9,0.2-2.2,0.9-3.9c0.7-1.7,1.4-3.4,2.1-5.1s1-2.8,0.9-3.6c-0.3-1.9-1.3-2.8-3.3-2.9c-0.8,0-1.5,0.1-2.1,0.4l-0.1,0.1 c-0.1,0-0.1,0.1-0.1,0.1c0,0-0.1,0-0.1,0.1c-0.1,0-0.1,0-0.1,0.1c0,0-0.1,0-0.1,0c-0.1,0-0.1,0-0.2,0c0,0-0.1-0.1-0.2-0.1 c-0.1,0-0.1-0.1-0.2-0.1c-0.1,0-0.1-0.1-0.3-0.2c-0.1-0.1-0.2-0.2-0.3-0.3s-0.1-0.1-0.2-0.2c-0.1-0.1-0.2-0.2-0.3-0.2 c-0.1,0-0.2-0.1-0.3-0.2c-0.1-0.1-0.2-0.1-0.3-0.1c-0.1,0-0.2-0.1-0.3-0.1c-0.6-0.1-1-0.1-1.3,0.1s-0.8,0.4-1.3,0.9 c0,0-0.1,0.1-0.3,0.2s-0.3,0.2-0.3,0.3c-0.1,0.1-0.2,0.2-0.4,0.3c-0.2,0.1-0.3,0.2-0.5,0.2c-0.1,0-0.3,0-0.5-0.1 c-1-0.5-1.8-0.9-2.3-1.1c-0.8-0.3-1.6-0.3-2.6,0.1s-1.7,1-2.1,1.8c-0.3,0.5-0.7,1.4-1.1,2.7c-0.5,1.3-0.9,2.5-1.2,3.7 c-0.3,1.2-0.7,2.4-1.1,3.7s-0.6,2-0.6,2c-0.4,1.3-0.2,2.4,0.5,3.3s1.8,1.4,3.1,1.3c0.6,0,1-0.2,1.4-0.4c0.4-0.2,0.7-0.7,1.1-1.3 c0.1-0.2,0.9-2.1,2.2-5.6c1.3-3.5,2.1-5.3,2.1-5.4c0.1-0.2,0.3-0.4,0.6-0.5c0.3-0.1,0.6-0.1,0.8,0c0.5,0.3,0.7,0.8,0.6,1.5 c0,0.3-0.5,1.6-1.4,3.9c-0.9,2.3-1.4,3.5-1.4,3.7c-0.1,0.7,0.1,1.2,0.5,1.6c0.5,0.3,1,0.4,1.7,0.2c0.7-0.2,1.2-0.7,1.5-1.4 c0.1-0.1,0.5-1,1.3-2.6s1.5-3.1,2.3-4.6s1.2-2.3,1.3-2.5c0.4-0.5,0.8-0.8,1.1-0.8c0.5,0,0.8,0.4,0.7,1.1c0,0.3-0.6,1.7-1.8,4.1 c-1.2,2.4-1.8,3.9-2,4.5c-0.2,1-0.1,1.9,0.4,2.9c0.5,0.9,1.2,1.6,2.1,2.1c0.3,0.2,0.8,0.3,1.4,0.4c0.6,0.1,1.3,0.2,2,0.2 c0.7,0,1.3-0.1,1.7-0.4C37,36.8,37.2,36.3,37.1,35.7z M17,2.2c0.1,0.3,0,0.6-0.1,0.9c-0.2,0.3-0.4,0.4-0.7,0.5 c-0.3,0.1-0.6,0-0.9-0.2C15,3.2,14.8,3,14.8,2.7c-0.1-0.3,0-0.6,0.2-0.9c0.2-0.3,0.4-0.4,0.7-0.5c0.3-0.1,0.6,0,0.9,0.2 C16.8,1.6,16.9,1.9,17,2.2z M26.4,49.1c0.2,0.3,0.3,0.7,0.2,1c-0.1,0.4-0.3,0.7-0.6,0.9s-0.7,0.3-1,0.2c-0.4-0.1-0.7-0.3-0.9-0.6 c-0.2-0.3-0.3-0.7-0.2-1c0.1-0.4,0.3-0.7,0.6-0.9c0.3-0.2,0.7-0.3,1-0.2S26.2,48.7,26.4,49.1z M31.6,3.7c0.3,0.5,0.4,1,0.2,1.6 s-0.5,1-1,1.3c-0.5,0.3-1,0.4-1.6,0.2c-0.6-0.1-1-0.5-1.3-1c-0.3-0.5-0.4-1.1-0.2-1.6c0.1-0.6,0.5-1,1-1.3c0.5-0.3,1-0.4,1.6-0.3 C30.8,2.9,31.3,3.2,31.6,3.7z M40.8,45.3c0.4,0.5,0.5,1.1,0.4,1.7c-0.1,0.6-0.4,1.1-0.9,1.5c-0.5,0.4-1.1,0.5-1.7,0.4 c-0.6-0.1-1.1-0.4-1.4-0.9c-0.4-0.5-0.5-1.1-0.4-1.7c0.1-0.6,0.4-1.1,0.9-1.5c0.5-0.4,1.1-0.5,1.7-0.4 C39.9,44.5,40.4,44.8,40.8,45.3z M47,15.3c0.3,0.4,0.4,0.9,0.3,1.4c-0.1,0.5-0.3,0.9-0.7,1.2c-0.4,0.3-0.9,0.4-1.4,0.3 c-0.5-0.1-0.9-0.3-1.2-0.8c-0.3-0.4-0.4-0.9-0.3-1.4c0.1-0.5,0.3-0.9,0.8-1.2c0.4-0.3,0.9-0.4,1.4-0.3C46.4,14.6,46.8,14.9,47,15.3 z M50.1,28.6c0.1,0.4,0,0.7-0.2,1c-0.2,0.3-0.5,0.5-0.9,0.6c-0.4,0.1-0.7,0-1-0.2c-0.3-0.2-0.5-0.5-0.6-0.9c-0.1-0.4,0-0.7,0.2-1 c0.2-0.3,0.5-0.5,0.9-0.6c0.4-0.1,0.7,0,1,0.2C49.8,28,50,28.3,50.1,28.6z M52.4,22c0.1,0.3,0,0.5-0.1,0.8 c-0.1,0.2-0.4,0.4-0.6,0.5c-0.3,0.1-0.5,0-0.8-0.2c-0.2-0.2-0.4-0.4-0.4-0.6c-0.1-0.3,0-0.5,0.1-0.8c0.1-0.2,0.4-0.4,0.6-0.4 c0.3-0.1,0.5,0,0.7,0.1C52.2,21.5,52.3,21.7,52.4,22z"
      fill-rule="evenodd"/>
    <path
      d="M549.655 124.083c-6.281-23.65-24.787-42.276-48.284-48.597C458.781 64 288 64 288 64S117.22 64 74.629 75.486c-23.497 6.322-42.003 24.947-48.284 48.597-11.412 42.867-11.412 132.305-11.412 132.305s0 89.438 11.412 132.305c6.281 23.65 24.787 41.5 48.284 47.821C117.22 448 288 448 288 448s170.78 0 213.371-11.486c23.497-6.321 42.003-24.171 48.284-47.821 11.412-42.867 11.412-132.305 11.412-132.305s0-89.438-11.412-132.305zm-317.51 213.508V175.185l142.739 81.205-142.739 81.201z"/>
  </symbol>
</svg>
