<?xml version="1.0" encoding="UTF-8"?>
<svg xmlns="http://www.w3.org/2000/svg" viewBox="0 0 45 49" width="32" height="32" role="img" aria-label="Ramblers">
  <title>Ramblers</title>
  <g fill-rule="nonzero">
    <path fill="#9BC8AB" d="M38.222 0L9.265 6.395l.042 4.515 5.541-.298 9.685 1.111 4.64 2.984 1.305 4.26-.721 2.976-.999 1.871-1.625 2.188-3.526 3.622-.341 1.809.957 2.273 2.256 1.2 3.843 2.871 5.254 2.591L45 36.481z" />
    <path fill="#F0814F" d="M1.272 13.723L0 45.888l20.802 2.421-5.157-6.6-2.572-6.326.183-2.816 1.877-3.41 4.605-2.745 4.472-4.026 1.324-2.023.275-3.026-1.073-2.271-2.865-1.713-10.191-.779z" />
  </g>
</svg>
