<?xml version="1.0" encoding="utf-8"?>
<!-- Generator: Adobe Illustrator 17.0.0, SVG Export Plug-In . SVG Version: 6.00 Build 0)  -->
<!DOCTYPE svg PUBLIC "-//W3C//DTD SVG 1.1//EN" "http://www.w3.org/Graphics/SVG/1.1/DTD/svg11.dtd">
<svg version="1.1" xmlns="http://www.w3.org/2000/svg" xmlns:xlink="http://www.w3.org/1999/xlink" x="0px" y="0px" width="460px"
	 height="483px" viewBox="0 0 460 483" enable-background="new 0 0 460 483" xml:space="preserve">
<g id="freddie-logo-BW">
</g>
<g id="Freddie-logo-RGB">
	<path id="Brown" fill="#684C46" d="M446.388,339.855c-0.364,1.191-34.779,133.472-169.998,133.432
		c-116.888-0.035-172.291-101.635-172.291-101.635c-8.519,0.475-16.739-0.878-24.32-3.663
		c-34.294-12.599-50.748-51.832-38.916-84.748l-18.848-14.404C-50.996,213.219,155.831-41.291,228.969,16.299
		c0.37,0.291,17.459,14.046,17.459,14.046c26.26-15.947,52.267-24.568,73.408-24.569c15.013-0.001,27.569,4.345,36.025,13.501
		c18.983,20.554,12.16,59.803-13.761,99.541c5.575,5.293,10.196,12.487,13.494,19.628c8.241,6.359,13.582,16.025,16.236,29.376
		c2.955,14.845,3.568,35.99,5.423,45.076c6.99,3.155,4.012,1.695,11.465,5.418c7.771,3.884,17.234,8.613,27.692,18.676
		c18.589,4.657,25.687,24.421,14.81,37.909c-0.292,0.362-1.605,1.918-2.965,3.466c0.325,0.856,3.89,6.633,6.463,18.393
		c7.703,1.819,13.839,6.562,17.059,13.439C457.346,323.66,446.388,339.855,446.388,339.855z M392.785,439.755v5.537h2.12v-5.537
		h2.169v-1.747h-6.43v1.747H392.785z M397.723,438.008v7.284h1.934v-5.259l1.58,5.259h1.649l1.58-5.273v5.273h1.934v-7.284h-3.024
		l-1.306,4.192l-1.325-4.192H397.723z"/>
	<path id="Light-Tan" fill="#F5DCBA" d="M131.683,290.078L131.683,290.078L131.683,290.078c2.945-7.485,4.429-13.628,4.429-13.628
		c3.371,10.306,5.096,21.145,4.419,32.102l0,0l0,0c2.795-3.719,5.795-10.722,5.795-10.722c5.199,30.606-17.136,58.622-46.562,58.622
		c-26.125,0-47.303-22.295-47.303-49.798c0-27.503,21.178-49.798,47.303-49.798c6.772,0,13.212,1.498,19.037,4.197
		C118.801,261.052,128.855,266.122,131.683,290.078z M389.089,398.005c36.67-28.813,43.077-63.514,43.688-64.71
		c9.023-10.822,6.57-21.484-5.35-21.485c-3.793,0-6.658,1.001-6.658,1.001s0.044-15.792-7.261-28.091
		c-5.631,6.333-21.262,18.879-41.772,28.616c-19.233,9.131-44.897,17.128-76.701,18.187l-0.001,0
		c-8.905,0.387-14.414-1.063-17.516,9.319c-0.99,3.668-0.562,9.117,0.183,10.692c2.509,8.599,9.063,12.389,17.691,14.396
		c6.542,1.524,13.49,1.667,13.49,1.667c64.501,1.809,116.295-48.497,116.914-48.915c0.599-0.491,1.095-1.072,1.095-1.072
		s-0.569,1.334-0.637,1.485c-9.316,20.951-63.257,58.944-116.948,57.856l-0.176,0.062c-12.452-0.047-27.581-3.252-35.446-13.005
		c-12.444-15.431-5.986-41.089,13.847-41.69c0.025-0.001,4.585-0.106,6.615-0.158c49.107-1.509,93.169-19.551,124.718-57.226
		c4.338-5.389-0.508-12.792-9.91-13.017c-0.082-0.002-0.162-0.038-0.218-0.098c-11.148-11.935-20.946-16.152-29.665-20.583
		c-18.276-9.31-16.556-1.268-20.807-46.428c-1.15-12.175-3.456-28.779-14.152-35.145c-2.804-1.669-5.868-2.385-9.049-2.385
		c-3.144,0-4.676,0.642-5.294,0.779c-5.858,1.298-9.19,4.619-13.363,8.467c-19.72,18.185-35.482,13.248-59.008,13.04
		c-22.095-0.193-41.603,15.22-45.335,38.889l-0.006,0.013c-1.814,12.39-0.64,24.979,1.302,30.638c0,0-5.997-3.989-8.855-7.521
		c3.459,21.623,23.186,35.755,23.186,35.755c-3.107,0.714-7.577,0.418-7.577,0.418c0.019,0.016,11.26,8.906,21.017,12.008
		c-2.541,1.582-15.402,14.272-22.034,31.742c-6.206,16.349-3.678,35.976-3.678,35.976l5.39-8.035c0,0-3.52,17.907,3.293,35.249
		c2.261-5.159,7.2-14.368,7.2-14.368s-0.783,19.231,8.475,34.977c0.238-3.634,1.627-12.886,1.627-12.886s5.313,16.417,17.585,27.897
		C281.962,430.703,342.792,434.385,389.089,398.005z"/>
	<path id="Blue" fill="#0788BF" d="M47.945,269.23c-0.186-0.05-17.8-12.976-20.305-17.232
		c-14.82-25.009,10.963-76.376,29.31-105.574c45.342-72.161,120.812-129.109,155.09-120.976l35.201,18.17
		c-13.668,8.04-26.887,17.915-34.806,24.482l-7.49,6.282c0,0-21.874,14.726-32.753,24.01
		c-43.61,37.212-86.549,94.82-102.473,150.427C69.719,248.817,56.636,255.312,47.945,269.23z"/>
	<path id="Light-Blue" fill="#46B8E3" d="M212.041,25.447L212.041,25.447c-34.279-8.133-109.748,48.815-155.09,120.976
		c-0.013,0.021-0.026,0.042-0.039,0.063l0.183,0.02l36.129,28.443c39.669-62.969,89.527-95.438,90.933-96.392l-5.728-38.54
		l10.731-5.138l21.537,6.974l-1.648-7.195L212.041,25.447L212.041,25.447z"/>
	<path id="Gold" fill="#FFD14F" d="M247.241,43.617l-34.806,24.482l-2.435,1.905l-30.864-25.217l-0.709-4.769l10.731-5.138
		c0.551,0.178,20.687,6.699,21.537,6.974l0.359-13.371l0.986-3.035l9.427-3.613C221.48,21.845,247.205,43.586,247.241,43.617z"/>
	<g id="Navy">
		<path fill="#122030" d="M315.925,19.607c-23.018,0-48.86,12.106-68.684,24.009c-2.781,1.636-5.54,3.349-8.243,5.094l-10.373-8.695
			l3.768,13.093c-1.424,0.978-2.815,1.954-4.176,2.923l-21.432-6.544l14.181,11.871c-3.238,2.454-6.13,4.751-8.53,6.741
			l-34.008-28.081l1.8,12.585l24.718,21.778c0,0-21.874,14.726-32.753,24.01c-43.61,37.212-86.549,94.82-102.473,150.427
			l0.905-0.509c0.123-0.068,0.247-0.125,0.37-0.192c0.443-0.239,0.885-0.466,1.328-0.689c0.284-0.143,0.567-0.288,0.851-0.424
			c0.456-0.219,0.912-0.422,1.368-0.623c0.269-0.119,0.539-0.244,0.808-0.356c0.494-0.207,0.987-0.395,1.481-0.582
			c0.228-0.086,0.456-0.181,0.684-0.262c0.719-0.258,1.436-0.496,2.15-0.709c10.826-3.229,25.555-5.306,42.796,2.016
			c8.659-21.839,19.003-44.058,35.305-65.408c13.218-17.311,25.924-32.765,41.174-41.265
			c28.875-27.125,106.701-55.889,131.634-30.956c5.896-9.645,11.012-18.774,15.227-30.219
			C356.205,51.118,356.395,19.607,315.925,19.607z"/>
		<polygon fill="#122030" points="217.13,43.936 212.041,25.447 209.048,34.658 210.839,41.899 		"/>
	</g>
	<path id="White" fill="#FFFFFF" d="M420.77,312.793c0,0,0.044-15.792-7.261-28.091c-5.631,6.333-21.262,18.879-41.772,28.616
		c-19.233,9.131-44.897,17.128-76.701,18.187l-0.001,0c-8.905,0.387-14.414-1.063-17.516,9.319
		c-0.242,0.895-0.399,1.897-0.488,2.922l-0.004,0.105c-0.001,0-0.003-0.001-0.004-0.001c-0.027,0.331-0.047,0.664-0.061,0.996
		c-0.031,0.949-0.021,1.785,0.016,2.514c0.001,0.018,0.002,0.035,0.003,0.053c0.003,0.054,0.006,0.107,0.009,0.159
		c0.028,0.456,0.067,0.894,0.115,1.305c0.002,0.02,0.005,0.042,0.007,0.062c0.003,0.022,0.005,0.043,0.008,0.065
		c0.21,1.649,0.537,2.415,0.577,2.503c0.001,0.003,0.003,0.007,0.004,0.01l0.041,0.138c2.539,8.501,9.069,12.262,17.65,14.258
		c6.542,1.524,13.491,1.667,13.491,1.667c52.627,1.476,96.796-31.742,111.61-44.249C420.746,319.826,420.896,317.326,420.77,312.793
		z M269.584,31.673c12.572-5.796,26.047-10.376,38.971-11.696c-12.836,2.888-28.477,9.543-47.008,20.883
		c-0.452,0.261-43.85,29.551-70.364,55.851c-14.449,14.332-72.471,83.91-72.425,83.851c10.604-20.068,17.59-29.919,34.377-51.031
		c9.494-11.94,19.625-23.552,29.996-34.274c3.486-3.604,7-7.107,10.525-10.489l0,0l0,0C195,83.479,225.32,52.432,269.584,31.673z"/>
	<path id="Medium-Tan" fill="#EABE8D" d="M389.089,398.005c-6.295,4.946-12.858,9.15-19.558,12.674
		c-15.495-5.889-25.003-18.436-25.003-18.436s13.284-3.141,31.041-12.171c21.597-10.974,41.78-26.829,57.209-46.778
		C432.166,334.49,425.759,369.192,389.089,398.005z M346.919,230.732c-7.495-5.33-19.908-1.088-22.645,7.733
		c4.337,0.219,8.939,3.5,8.655,7.698c3.062-2.964,7.416-4.637,11.652-4.559C342.538,238.328,343.57,232.68,346.919,230.732z
		 M268.283,338.376c2.361-8.787,9.029-15.748,19.248-16.058c0.025-0.001,4.585-0.106,6.615-0.158
		c49.107-1.509,93.169-19.551,124.718-57.226c4.338-5.389-0.508-12.792-9.91-13.017c-0.037-0.001-0.134,0-0.134,0
		c-1.59,1.681-1.875,4.752-4.505,9.341c-9.596,16.672-22.869,24.295-40.568,33.141c-54.263,27.015-82.402,14.445-93.695,30.985
		C266.77,330.252,266.708,335.689,268.283,338.376C268.283,338.377,268.283,338.376,268.283,338.376z M366.467,225.074
		c-5.19-3.724-5.375-10.22-8.204-40.266c-0.905-9.583-2.528-21.909-8.393-29.828c-1.213-1.06-2.918-2.277-5.374-2.277
		c-3.705-0.164-7.893,3.675-10.267,6.298c-6.739,9.726-13.177,15.989-24.564,21.417c-11.525,5.216-22.477,7.108-33.848,6.749
		c-8.323-0.263-15.612-1.634-22.757-1.725c-13.239-0.207-24.713,4.084-33.076,14.644c-5.735,7.242-8.037,14.898-8.771,24.01
		c0.028,1.098,0.077,2.134,0.14,3.109c0.099,1.448,0.231,2.83,0.391,4.127c0.584,4.618,1.417,7.014,1.417,7.014
		c0,0.036-0.006,0.071-0.016,0.104c0.069,0.226,0.139,0.444,0.211,0.652c0,0-5.997-3.989-8.855-7.521
		c2.884,18.026,17.072,30.846,21.713,34.612c0.274,0.21,0.544,0.419,0.809,0.628c0.023,0.018,0.043,0.039,0.06,0.061
		c0.389,0.3,0.604,0.455,0.604,0.455c-3.107,0.714-7.577,0.418-7.577,0.418c0.019,0.016,11.26,8.906,21.017,12.008
		c12.944-10.939,27.62-15.138,39.667-16.441c7.302-4.531,15.153-8.982,23.583-13.274c-2.553-15.896,11.544-31.903,29.283-33.44
		c13.385-0.975,19.897,5.025,24.586,11.441c2.545-0.812,5.415-1.7,8.622-2.644C366.733,225.315,366.598,225.204,366.467,225.074z
		 M372.87,332.133c-0.135,0.003-0.275,0.033-0.498,0.083c-5.348,1.239-60.49,22.6-95.349,11.651
		c-0.156,1.907-0.106,5.915,0.675,7.657c0.001,0.003,0.003,0.007,0.004,0.01c5.273,1.057,11.947,1.733,19.693,1.733
		C343.266,353.267,376.323,332.411,372.87,332.133z M116.244,327.85c0.013-0.009,0.026-0.018,0.039-0.027
		c2.793-3.002,3.965-7.197,3.301-11.209c-1.031-5.773-7.572-6.939-11.897-11.422c-0.069-0.071-0.137-0.143-0.204-0.216
		c-0.073-0.079-0.144-0.159-0.213-0.238c-0.005-0.005-0.009-0.011-0.014-0.016c-1.943-2.238-2.62-4.783-2.462-7.054
		c0.342-5.905,5.586-7.565,8.315-6.478c0,0,3.237,0.766,5.744,4.263c0,0-0.001-0.006-0.002-0.014
		c-0.381-1.154-0.303-3.018-2.265-5.796c-3.215-4.555-10.6-9.188-21.069-6.97l0.002,0c-1.935,0.41-0.851,0.177-2.76,0.715
		c-0.298,0.084-0.57,0.167-0.805,0.265c-0.6,0.281-1.155,0.474-1.687,0.757l0,0c-0.276,0.154-1.849,0.867-3.742,2.293
		C74.757,301.893,94.688,329.44,116.244,327.85z"/>
	<path id="Medium-Brown" fill="#9C7356" d="M289.748,234.357c0.993,1.452,1.259,2.549,0.858,3.005
		c-0.8,0.935-3.659-0.328-7.88-1.972c-10.804-4.031-18.764-4.645-32.854,0.689c-3.563,1.359-6.089,2.409-7.301,2.228
		c-1.976-0.294-0.063-3.911,4.256-7.42c8.689-6.932,20.623-9.083,30.821-5.288C282.112,227.242,287.125,230.521,289.748,234.357z
		 M287.607,245.408c-2.962-2.262-8.416-3.779-14.079-2.817c-1.188,0.181-2.286,0.549-3.366,0.839
		c-0.396,0.098-0.775,0.238-1.144,0.393c-2.341,0.986-4.368,2.049-6.335,3.934c-2.256,2.181-2.897,4.206-2.245,4.704
		c0.641,0.512,2.203-0.246,4.617-1.222c8.086-3.362,13.808-3.451,19.26-3.071c2.629,0.177,4.389,0.335,4.797-0.381
		C289.4,247.301,288.877,246.377,287.607,245.408z M113.476,286.88l0.002,0.002l0.003,0.002c1.327,1.055,2.345,2.181,3.104,3.257
		c2.487,3.521,1.696,5.575,2.716,6.574c0.368,0.361,0.894,0.475,1.419,0.261c1.41-0.582,2.103-2.825,2.235-4.39h0l0.001-0.01h0
		c0.354-3.763-1.635-7.992-4.271-10.989h0l-0.007-0.008l0,0c-1.613-1.874-3.736-3.62-6.262-5.027
		c-2.53-1.409-5.465-2.477-8.693-2.977c-5.577-0.868-11.063,0.243-12.595,0.7l0.008-0.002c-0.79,0.229-1.766,0.435-2.605,0.764
		c-9.096,3.547-15.082,10.059-17.745,18.683l-0.001,0.003l-0.001,0.004c-0.985,3.283-1.377,6.453-1.377,9.381
		c0,2.524,0.291,4.87,0.745,6.961l0,0.002l0.001,0.003l-0.001-0.003c0.77,3.517,2.344,7.478,4.8,10.078l0,0l0.008,0.008l0,0
		c3.071,3.319,6.437,2.684,5-0.404c-0.343-0.855-2.198-4.351-2.448-10.679c-0.162-4.141,0.406-8.451,1.926-12.384
		c0.841-2.128,1.994-4.198,3.494-6.059c3.091-3.782,6.89-5.475,7.334-5.722l0,0c0.532-0.283,1.087-0.476,1.687-0.757
		c0.234-0.098,0.506-0.181,0.805-0.265c1.909-0.538,0.826-0.305,2.76-0.715l-0.002,0
		C102.794,281.629,109.057,283.316,113.476,286.88z M111.923,300.933c-1.005-0.796-1.472-1.476-1.749-2.522
		c-0.411-1.906-0.197-3.013,1.432-4.157c1.254-0.859,2.264-1.273,2.267-1.813c0.057-1.021-4.139-2.073-7.072,0.815
		c-2.436,2.595-3.205,8.004,0.681,12.22c4.326,4.668,11.053,5.769,12.101,11.638c0.138,0.832,0.24,1.758,0.168,2.672
		c0.015,1.05-0.336,2.56-0.353,2.655c-1.301,5.669-6.681,11.079-15.553,9.7c-1.634-0.238-2.693-0.439-3.009,0.013
		c-0.684,0.952,3.118,5.302,10.078,5.144c6.81-0.144,13.566-5.243,15.731-12.906c0.025-0.1,0.664-2.272,0.717-4.219
		c0.122-1.442,0.018-2.925-0.251-4.477C125.337,305.856,115.559,303.834,111.923,300.933z M349.255,230.68
		c-2.691-0.42-5.339,2.231-5.915,5.922c-0.576,3.69,1.139,7.022,3.83,7.442c2.691,0.42,5.339-2.231,5.915-5.922
		C353.661,234.432,351.946,231.1,349.255,230.68z M319.687,241.445c-1.479,2.699,0.322,6.532,4.024,8.56
		c3.701,2.028,7.901,1.485,9.38-1.215c1.479-2.699-0.322-6.532-4.024-8.56S321.166,238.746,319.687,241.445z M211.355,132.263
		c50.922-33.005,101.787-36.8,119.214-23.401c0.001-0.002,0.002-0.003,0.003-0.005c-0.032-0.088-0.312-0.861-0.421-1.073l0,0
		c-4.425-9.402-14.749-15.961-23.946-18.592c1.613,1.676,3.947,4.744,4.891,6.567c-6.941-4.767-16.164-8.966-25.79-10.961
		c0,0,1.147,0.824,1.343,1.007c1.919,1.787,4.472,4.611,5.517,7.036c-9.2-3.694-20.83-5.764-30.786-3.847
		c-0.139,0.027-1.244,0.288-1.244,0.288s1.296,0.322,1.584,0.408c3.302,0.979,8.013,2.991,10.089,5.748
		c-16.526-2.907-34.706,0.31-44.511,5.793c1.261-0.053,1.249-0.058,2.315-0.03c3.607,0.096,10.873,0.586,13.924,2.527
		c-10.424,2.12-25.51,6.783-33.631,13.767c1.434-0.167,9.571-1.204,12.901-0.669c-44.7,25.579-65.044,64.251-65.044,64.251l0,0
		C170.942,163.904,188.039,147.375,211.355,132.263z"/>
	<path id="Brown-Eye" fill="#684C46" d="M331.496,204.371c-0.069-3.509,0.486-9.308,3.79-10.386l0,0
		c0.004-0.001,0.002-0.001,0.007-0.002l0,0c5.647-1.959,13.123,12.502,13.467,25.342c-4.462-2.234-9.706-3.182-15.098-2.715
		C332.306,212.477,331.657,208.583,331.496,204.371z"/>
</g>
</svg>
