<svg viewBox="0 0 95 95" xmlns="http://www.w3.org/2000/svg" fill-rule="evenodd" clip-rule="evenodd" stroke-linejoin="round" stroke-miterlimit="2">
  <path d="M66.522 11.742h10.954c9.743 0 17.653 7.91 17.653 17.653v38.517c0 9.743-7.91 17.653-17.653 17.653h-.863c-5.015-.784-7.19-2.288-8.87-3.559L53.816 70.555a1.968 1.968 0 00-2.466 0l-4.524 3.721-12.743-10.478a1.96 1.96 0 00-2.464 0L13.915 79.371c-3.562 2.898-5.919 2.363-7.447 2.195C2.52 78.326 0 73.411 0 67.912V29.395c0-9.743 7.91-17.653 17.654-17.653h10.93l-.02.044-.368 1.074-.115.368-.496 2.201-.068.385-.218 2.204-.029.605-.005.212.021 1.01.05.593.123.926.156.835.186.768.241.832.625 1.761.207.528 1.089 2.301.384.707 1.26 2.162.482.78 1.758 2.588.253.343 2.288 2.977.739.916 2.611 3.053.537.588 2.153 2.316.852.883 1.409 1.4-.282.236-.177.159c-.478.446-.932.92-1.357 1.418-.205.241-.4.49-.584.746a9.78 9.78 0 00-.755 1.233 7.336 7.336 0 00-.302.685 6.35 6.35 0 00-.409 1.86l-.008.551c.02.776.178 1.542.467 2.263.292.73.719 1.399 1.258 1.973.392.417.838.781 1.327 1.08a6.76 6.76 0 001.321.624 7.401 7.401 0 003.119.355h.005a7.04 7.04 0 002.573-.764c.345-.183.674-.395.982-.636a6.288 6.288 0 001.981-2.635c.325-.81.484-1.675.47-2.546l-.026-.456a6.43 6.43 0 00-.426-1.753 7.348 7.348 0 00-.33-.716 9.82 9.82 0 00-.777-1.229 12.31 12.31 0 00-.41-.525 16.823 16.823 0 00-1.515-1.587l-.382-.325.646-.637 2.774-2.897.959-1.053 1.491-1.678.97-1.134 1.383-1.685.937-1.177 1.375-1.839.694-.951.985-1.473.82-1.254 1.546-2.692.884-1.766.025-.054.677-1.638a.56.56 0 00.023-.065l.729-2.274.076-.331.317-1.81.061-.49.019-.3.022-1.133-.006-.211-.058-1.015-.072-.788-.359-2.272a.975.975 0 00-.021-.09l-.461-1.68-.159-.467-.207-.517zm5.207 48.032a4.262 4.262 0 00-4.183 4.183c.033 2.281 1.901 4.148 4.183 4.181 2.281-.033 4.149-1.9 4.184-4.181a4.263 4.263 0 00-4.184-4.183z" fill="url(#flyGradient)"/>
  <defs>
    <radialGradient id="flyGradient" cx="0" cy="0" r="1" gradientUnits="userSpaceOnUse" gradientTransform="translate(50.51 48.332) scale(68.9126)">
      <stop offset="0" stop-color="#ba7bf0"/>
      <stop offset=".45" stop-color="#996bec"/>
      <stop offset="1" stop-color="#5046e4"/>
    </radialGradient>
  </defs>
</svg>
